<?xml version="1.0" encoding="utf-8"?>
<!-- Svg Vector Icons : http://www.onlinewebfonts.com/icon -->
<!DOCTYPE svg PUBLIC "-//W3C//DTD SVG 1.1//EN" "http://www.w3.org/Graphics/SVG/1.1/DTD/svg11.dtd">
<svg version="1.1" xmlns="http://www.w3.org/2000/svg" xmlns:xlink="http://www.w3.org/1999/xlink" x="0px" y="0px" viewBox="0 0 256 256" enable-background="new 0 0 256 256" xml:space="preserve">
<metadata> Svg Vector Icons : http://www.onlinewebfonts.com/icon </metadata>
<g><g><path fill="#000000" d="M128,10C62.8,10,10,64.2,10,131c0,53.5,33.8,98.8,80.7,114.8c0.7,0.2,1.4,0.2,2,0.2c4.4,0,6.1-3.2,6.1-6c0-2.9-0.1-10.5-0.2-20.6c-4.4,1-8.4,1.4-11.9,1.4c-22.7,0-27.9-17.7-27.9-17.7c-5.4-14-13.1-17.7-13.1-17.7c-10.3-7.2,0-7.4,0.7-7.4c0,0,0,0,0,0c11.8,1.1,18.1,12.5,18.1,12.5c5.9,10.3,13.8,13.2,20.9,13.2c5.5,0,10.5-1.8,13.5-3.2c1.1-7.8,4.1-13.1,7.5-16.2c-26.2-3.1-53.7-13.4-53.7-59.8c0-13.2,4.6-24,12.1-32.5c-1.2-3.1-5.3-15.4,1.2-32c0,0,0.8-0.3,2.6-0.3c4.3,0,13.9,1.6,29.8,12.7c9.4-2.7,19.5-4,29.5-4c10,0,20.1,1.4,29.5,4c15.9-11.1,25.5-12.7,29.8-12.7c1.8,0,2.6,0.3,2.6,0.3c6.4,16.6,2.4,29,1.2,32c7.5,8.5,12.1,19.3,12.1,32.5c0,46.5-27.6,56.7-53.9,59.7c4.2,3.7,8,11.1,8,22.4c0,16.2-0.2,29.2-0.2,33.2c0,2.8,1.6,6.1,6,6.1c0.6,0,1.4,0,2.1-0.2c47-16.1,80.7-61.4,80.7-114.8C246,64.2,193.2,10,128,10z"/></g></g>
</svg>