<?xml version="1.0" standalone="no"?>
<!DOCTYPE svg PUBLIC "-//W3C//DTD SVG 20010904//EN"
 "http://www.w3.org/TR/2001/REC-SVG-20010904/DTD/svg10.dtd">
<svg version="1.0" xmlns="http://www.w3.org/2000/svg"
 width="736.000000pt" height="736.000000pt" viewBox="0 0 736.000000 736.000000"
 preserveAspectRatio="xMidYMid meet">
<metadata>
Created by potrace 1.14, written by Peter Selinger 2001-2017
</metadata>
<g transform="translate(0.000000,736.000000) scale(0.100000,-0.100000)"
fill="#000000" stroke="none">
<path d="M2288 7319 c-6 -64 9 -197 33 -284 11 -44 20 -84 20 -90 -1 -5 -3
-23 -5 -40 -1 -16 10 -68 26 -114 15 -47 26 -86 24 -88 -4 -4 -13 19 -47 114
-26 76 -4 77 -229 -7 -159 -59 -181 -69 -240 -106 -94 -60 -131 -78 -139 -67
-3 6 -44 20 -90 32 -46 12 -99 28 -119 36 -21 9 -68 15 -119 15 -70 0 -106 -7
-202 -36 -124 -39 -295 -115 -349 -157 l-33 -25 147 -113 c80 -63 174 -136
207 -162 71 -55 207 -186 207 -200 0 -11 -68 42 -129 101 -25 23 -48 42 -52
42 -3 0 -12 7 -19 15 -7 8 -32 25 -57 37 -24 12 -71 46 -103 76 -33 29 -61 52
-64 50 -3 -2 -27 14 -54 35 -27 20 -52 37 -56 37 -4 0 -31 19 -60 43 -30 23
-93 70 -142 104 -49 34 -104 77 -123 95 -19 18 -37 33 -42 33 -4 0 -19 10 -33
22 -14 13 -32 20 -40 17 -12 -5 -8 -12 15 -31 16 -14 27 -28 24 -31 -2 -3 -13
4 -23 16 -18 20 -62 27 -62 9 0 -5 7 -7 15 -3 8 3 15 1 15 -4 0 -20 -24 -9
-52 23 -19 21 -31 28 -34 20 -8 -20 -104 -17 -104 2 0 8 -9 15 -20 15 -16 0
-20 -7 -20 -35 l0 -35 -57 -2 c-32 0 -68 0 -80 1 l-23 2 0 -1159 c0 -815 3
-1169 11 -1193 6 -19 17 -47 24 -64 11 -27 41 -119 60 -185 7 -24 7 -24 -9 -5
-15 19 -15 19 -7 -11 5 -16 16 -44 25 -62 9 -17 16 -37 16 -45 0 -8 7 -20 15
-27 11 -9 14 -22 10 -41 -3 -15 -1 -30 4 -34 6 -3 11 -13 11 -22 0 -8 18 -51
40 -95 22 -44 43 -101 46 -126 l6 -47 -32 35 -31 35 25 -51 c14 -28 39 -66 56
-83 17 -17 27 -31 21 -31 -20 0 -118 107 -156 170 -34 57 -120 188 -131 199
-2 2 -4 -404 -4 -904 l0 -908 23 35 c13 19 39 68 59 108 32 69 35 82 32 155
-1 44 -3 148 -5 232 -3 147 -4 152 -26 162 -46 21 -21 30 28 10 67 -26 73 -19
9 11 -28 13 -50 27 -50 32 0 4 26 -5 58 -21 31 -16 104 -43 161 -59 57 -17
107 -35 110 -40 9 -15 163 -50 276 -63 204 -22 383 18 465 106 31 33 46 32 17
-1 -33 -38 -132 -89 -212 -109 -47 -11 -104 -16 -175 -15 -130 3 -133 2 -124
-11 4 -7 0 -9 -14 -5 -16 5 -21 2 -24 -15 -4 -29 -24 -36 -30 -11 -3 10 -13
19 -22 19 -19 0 -23 -53 -3 -60 10 -4 10 -6 0 -6 -9 -1 -13 -21 -13 -65 l0
-64 35 16 c23 11 31 19 22 24 -6 4 -8 8 -4 8 4 0 3 9 -2 19 -8 14 -7 22 4 31
16 13 19 6 16 -32 -2 -11 5 -18 16 -19 10 0 13 -3 5 -6 -6 -2 -10 -9 -7 -13 3
-5 12 -7 20 -3 8 3 15 0 15 -6 0 -6 -9 -11 -21 -11 -11 0 -17 -4 -14 -10 5 -8
-47 -16 -77 -11 -5 0 -8 -4 -8 -10 0 -8 -5 -8 -15 1 -10 8 -12 17 -6 24 11 14
15 196 3 196 -16 0 -9 30 7 31 28 1 -55 27 -141 44 -45 8 -94 18 -107 21 -19
4 -22 2 -14 -8 15 -18 23 -276 9 -282 -6 -2 -3 -5 6 -5 11 -1 21 -15 29 -43
20 -77 42 -119 88 -169 42 -45 49 -49 78 -43 31 6 33 9 28 43 -12 98 -14 137
-7 147 4 6 39 14 77 17 65 6 71 5 84 -15 7 -12 17 -72 21 -137 10 -141 30
-217 62 -239 41 -28 160 -162 144 -162 -3 0 -27 12 -53 26 -103 57 -130 68
-181 72 -56 5 -190 -13 -228 -30 -31 -14 -107 27 -98 54 4 13 0 18 -13 18 -25
0 -42 -14 -98 -80 -52 -61 -64 -85 -126 -250 -23 -63 -49 -122 -56 -131 -7 -8
-13 -22 -13 -30 0 -12 -2 -11 -10 1 -6 10 -10 -153 -10 -470 l1 -485 67 -43
67 -44 74 7 c41 3 81 9 88 13 20 12 152 143 190 189 29 35 37 57 50 130 20
115 14 334 -10 378 -9 17 -17 37 -17 45 0 21 -76 41 -126 33 -30 -5 -52 -20
-99 -67 -68 -70 -95 -134 -95 -229 0 -54 23 -135 43 -148 5 -4 6 -12 2 -19 -5
-9 -4 -11 3 -6 7 4 12 2 12 -3 0 -6 -10 -11 -23 -11 -37 0 -72 48 -91 123 -18
75 -23 241 -8 260 6 7 19 41 30 77 25 81 62 151 75 143 6 -3 7 -1 4 4 -18 29
110 150 183 174 19 6 51 21 70 33 30 18 54 21 160 24 122 3 126 3 167 -25 41
-26 59 -51 29 -40 -8 3 -17 -1 -20 -9 -3 -9 -1 -12 4 -9 6 3 10 -3 10 -14 0
-18 19 -30 59 -37 7 -2 17 -6 21 -11 14 -16 41 -96 56 -167 19 -82 30 -406 15
-406 -5 0 -12 -14 -16 -30 -4 -17 -10 -30 -14 -30 -8 0 -14 57 -27 235 -7 107
-39 231 -72 279 -51 74 -91 106 -132 106 -20 0 -52 5 -70 11 -21 8 -34 8 -39
2 -3 -6 -31 -14 -61 -17 -79 -10 -119 -25 -131 -48 -6 -11 -9 -22 -6 -24 2 -2
30 -6 63 -8 79 -5 76 -4 68 -18 -6 -9 -3 -9 9 0 14 12 21 11 45 -7 63 -45 100
-171 112 -387 9 -169 3 -229 -36 -349 -18 -54 -61 -122 -99 -158 -14 -12 -39
-45 -57 -74 -35 -55 -83 -94 -163 -134 -40 -19 -65 -24 -125 -24 -72 0 -186
16 -222 30 -16 6 -18 0 -18 -69 l0 -76 829 0 829 0 6 43 c11 80 9 211 -5 240
-11 24 -11 30 1 37 8 5 11 13 6 17 -5 4 -11 2 -13 -4 -3 -7 -9 -13 -14 -13
-12 0 -12 37 1 45 6 3 10 13 10 21 0 8 -4 14 -10 14 -5 0 -10 -7 -10 -15 0 -8
-4 -15 -9 -15 -11 0 -21 36 -21 78 0 22 -5 32 -15 32 -12 0 -15 18 -15 104 0
58 -5 139 -11 181 -8 62 -7 94 6 173 16 94 24 120 26 91 1 -8 4 0 8 16 5 24
13 32 44 39 26 7 37 15 37 28 0 13 8 18 28 18 16 0 50 7 76 16 41 14 50 14 57
3 5 -8 9 -9 9 -3 0 5 7 19 15 30 30 39 -22 -92 -64 -160 -23 -38 -41 -70 -41
-72 0 -14 18 1 39 31 13 19 28 32 35 28 6 -3 8 -3 4 1 -4 4 16 54 44 109 28
56 55 113 59 127 7 19 8 15 5 -17 -5 -53 8 -64 24 -20 l12 32 8 -25 c7 -22 8
-22 11 -5 1 11 2 31 1 45 l-1 25 11 -23 c9 -18 9 -38 -1 -85 -21 -106 -59
-227 -83 -265 -30 -50 -88 -112 -102 -112 -7 0 -21 -7 -32 -16 -18 -15 -17
-15 16 -10 19 4 47 15 63 27 15 11 33 17 39 13 6 -4 8 -3 5 3 -4 6 0 16 8 23
32 27 114 197 107 222 -1 4 4 25 12 45 8 21 18 61 22 88 4 28 8 55 9 60 1 6 3
23 3 39 2 28 3 29 17 10 14 -18 14 -17 15 16 0 23 3 30 9 22 10 -16 54 -7 72
14 6 8 19 14 29 14 10 0 20 9 23 19 3 13 17 22 41 26 21 4 36 13 36 21 0 8 7
14 15 14 8 0 15 5 15 10 0 6 15 20 33 30 19 11 40 31 47 45 7 13 21 27 32 31
10 3 18 14 18 25 0 10 7 19 15 19 8 0 15 6 15 14 0 19 47 56 74 57 19 1 18 2
-4 9 l-25 8 29 1 c23 1 26 4 17 15 -9 11 -4 15 31 20 72 10 204 17 188 9 -41
-18 -49 -53 -12 -53 15 0 15 2 2 10 -11 7 -8 10 15 9 17 0 39 -4 50 -9 17 -7
14 -9 -15 -10 l-35 -2 44 -10 c38 -8 42 -12 27 -20 -10 -6 -37 -8 -60 -5 -27
4 -34 3 -21 -2 27 -12 11 -17 -88 -31 -101 -13 -167 -13 -167 1 0 5 -5 7 -11
3 -8 -5 -6 -10 6 -17 15 -8 191 -2 247 8 39 8 111 14 84 7 -17 -4 -29 -9 -29
-12 6 -22 18 -46 26 -51 15 -11 -1 -42 -18 -35 -8 3 -15 1 -15 -4 0 -6 8 -11
18 -11 9 -1 4 -5 -13 -10 -26 -7 -24 -8 11 -4 32 4 43 1 48 -11 11 -28 6 -36
-18 -32 -19 4 -22 1 -18 -14 3 -13 8 -16 17 -8 8 7 18 5 31 -5 21 -16 21 -15
-33 -53 -10 -7 -12 -10 -4 -6 10 5 12 3 6 -6 -9 -15 14 -32 35 -25 9 3 23 -7
35 -25 18 -27 45 -45 30 -20 -4 6 1 7 11 3 14 -5 13 -8 -7 -19 l-24 -14 23 -6
c12 -3 22 -13 22 -21 0 -8 4 -12 9 -9 11 7 22 -19 15 -37 -2 -7 2 -27 11 -43
8 -16 15 -38 15 -49 0 -17 2 -17 10 -5 8 12 10 11 10 -7 0 -12 -7 -28 -15 -37
-8 -8 -15 -26 -15 -40 0 -14 -4 -26 -9 -26 -5 0 -12 -12 -15 -26 -4 -14 -16
-35 -26 -47 -11 -12 -18 -28 -15 -38 3 -10 1 -20 -5 -24 -6 -4 -9 -13 -6 -20
3 -9 -2 -11 -16 -7 -17 4 -20 2 -15 -12 4 -10 3 -15 -3 -11 -12 8 -42 -20 -32
-29 3 -4 -1 -4 -9 -1 -9 3 -22 -2 -30 -11 -13 -15 -11 -16 11 -10 19 6 21 5
10 -3 -8 -6 -23 -8 -34 -5 -10 4 -16 2 -13 -3 13 -20 -12 -37 -52 -35 -41 3
-57 -13 -23 -21 9 -2 4 -3 -13 0 -16 2 -51 6 -77 9 -27 4 -48 10 -48 15 0 5
-18 9 -40 9 -34 0 -40 3 -40 21 0 15 -5 19 -15 15 -11 -4 -15 1 -15 19 0 14 0
26 1 28 0 1 -5 16 -11 32 -7 17 -14 45 -16 63 -3 29 -1 31 16 22 28 -15 60
-12 60 5 0 8 -9 15 -20 15 -11 0 -23 7 -27 16 -4 11 -13 14 -31 9 -30 -7 -45
11 -31 37 7 14 6 16 -5 12 -9 -3 -18 -22 -22 -42 -4 -20 -15 -50 -25 -66 -14
-26 -16 -41 -8 -91 4 -33 6 -69 3 -80 -4 -14 -3 -16 4 -7 7 10 11 3 17 -24 4
-22 12 -42 18 -46 9 -6 8 -8 -1 -8 -8 0 -16 9 -19 20 -3 11 -9 20 -14 20 -5 0
-3 -11 3 -25 6 -14 15 -25 20 -25 4 0 8 -6 8 -14 0 -31 20 -67 32 -60 7 5 21
9 30 9 17 2 17 1 1 -17 -16 -18 -16 -18 2 -12 12 5 16 4 12 -3 -11 -18 65 -91
112 -107 25 -8 49 -12 54 -9 6 3 7 1 4 -4 -12 -20 78 -35 239 -40 181 -6 199
-2 352 68 93 43 166 109 201 183 29 62 81 221 81 249 0 12 11 49 25 81 34 82
41 194 21 323 -17 115 -45 180 -101 237 -33 35 -36 41 -31 84 l5 47 -11 -40
c-6 -22 -14 -42 -18 -45 -11 -7 -30 -81 -46 -179 -13 -83 -24 -115 -24 -73 0
12 7 63 16 112 8 50 12 95 8 102 -5 7 -3 8 6 3 9 -6 11 1 6 26 -5 27 -4 30 4
14 9 -17 10 -16 5 7 -6 33 14 120 26 112 5 -3 6 1 3 9 -5 14 24 132 32 125 2
-2 -3 -28 -11 -58 -17 -65 -17 -60 -7 -60 4 0 23 33 42 73 29 61 61 99 200
242 91 94 183 198 205 232 24 38 45 61 53 58 7 -3 10 -1 7 5 -8 12 16 50 32
50 29 0 34 -38 16 -118 -11 -45 -16 -90 -12 -107 6 -26 7 -27 8 -6 0 13 4 22
7 18 3 -3 -4 -61 -16 -129 -15 -84 -20 -143 -16 -185 4 -44 1 -66 -8 -75 -20
-21 -24 -110 -14 -323 5 -90 12 -139 31 -196 45 -134 45 -260 -1 -348 -16 -31
-24 -36 -53 -36 -35 0 -47 -15 -47 -60 -1 -18 0 -17 9 3 5 13 14 20 19 17 6
-4 17 -1 25 5 22 18 19 -2 -5 -51 -12 -22 -25 -37 -30 -34 -5 3 -14 -11 -19
-32 -6 -21 -25 -61 -43 -90 -18 -29 -53 -84 -77 -124 -79 -127 -183 -211 -330
-268 -235 -91 -566 -117 -747 -59 -38 12 -71 22 -74 23 -3 1 -29 13 -59 27
-30 14 -61 23 -70 20 -10 -4 -12 -1 -6 8 6 10 4 12 -8 7 -9 -3 -16 -3 -14 2 2
9 -57 61 -69 61 -5 0 -2 -5 6 -10 8 -5 10 -10 5 -10 -13 0 -51 42 -47 52 1 4
-6 4 -15 1 -10 -4 -14 -2 -10 4 4 6 -5 21 -20 33 -16 12 -34 31 -41 43 -7 12
-11 15 -9 7 3 -10 -2 -16 -13 -16 -15 0 -16 4 -9 18 10 19 3 42 -10 33 -5 -2
-16 4 -26 15 -11 13 -14 20 -6 20 7 0 9 5 6 10 -5 8 -12 7 -22 -2 -14 -11 -15
-10 -10 7 4 11 2 27 -4 35 -8 12 -9 11 -5 -5 3 -11 1 -27 -5 -35 -8 -12 -9 -9
-4 9 4 13 3 21 -2 18 -5 -3 -9 2 -10 11 0 9 -8 56 -17 104 -9 49 -14 114 -11
150 2 35 2 53 -1 40 -3 -12 -10 -22 -16 -22 -6 0 -8 10 -4 23 3 12 6 28 6 36
0 7 6 11 13 8 8 -3 13 3 13 14 0 39 -25 8 -42 -51 -6 -23 -7 -24 -14 -5 -6 17
-8 15 -12 -12 -2 -18 -1 -30 4 -27 21 13 5 -16 -17 -30 -14 -9 -25 -23 -25
-31 0 -8 -9 -15 -20 -15 -12 0 -20 -7 -20 -16 0 -9 -8 -28 -18 -42 -14 -19
-24 -70 -37 -175 -9 -81 -15 -154 -12 -162 4 -8 2 -17 -3 -20 -6 -4 -10 -15
-10 -26 0 -10 -4 -19 -10 -19 -5 0 -10 -11 -10 -24 0 -13 -7 -29 -15 -36 -8
-7 -15 -19 -15 -26 0 -8 -7 -14 -15 -14 -17 0 -25 -25 -28 -90 -2 -25 -7 -51
-11 -58 -6 -9 283 -12 1337 -12 l1345 0 16 52 c10 29 26 76 38 104 l20 50 -21
67 c-17 57 -42 110 -61 127 -17 16 -60 112 -60 133 0 27 37 97 114 215 26 40
63 116 83 170 19 53 41 103 48 111 11 11 30 11 123 -3 145 -21 315 -22 332 -1
7 8 18 15 25 15 11 0 133 61 279 139 32 17 68 31 80 31 36 0 66 12 66 25 0 8
9 16 19 20 22 7 35 32 21 40 -6 4 -10 2 -10 -3 0 -11 -68 -32 -72 -22 -2 4
-19 17 -38 29 -22 13 -29 21 -17 21 9 0 17 5 17 10 0 13 -6 13 -30 0 -13 -7
-28 -5 -52 5 -22 10 -27 14 -14 15 19 0 19 0 0 18 -11 11 -26 22 -34 25 -11 4
-11 6 -2 6 14 1 42 25 42 35 0 3 -12 6 -27 6 -22 0 -25 2 -13 10 21 13 93 12
127 -1 83 -34 111 -50 141 -78 17 -17 33 -37 33 -44 1 -6 2 -16 4 -22 1 -5 3
-16 3 -24 2 -16 49 -7 72 14 8 7 49 16 90 20 41 3 125 13 187 21 100 13 127
13 244 -1 155 -18 270 -45 394 -91 50 -18 128 -47 175 -62 103 -35 140 -54
249 -126 102 -67 89 -75 -15 -10 -41 25 -81 44 -88 41 -8 -3 -17 -1 -20 6 -3
9 -5 8 -5 -1 -1 -7 7 -16 17 -19 9 -4 22 -12 29 -19 7 -6 55 -28 108 -49 94
-36 129 -60 45 -30 -23 8 -53 15 -67 15 -15 0 -22 4 -17 11 4 7 0 9 -14 5 -12
-4 -38 -2 -59 3 -20 6 -39 8 -42 5 -8 -8 122 -128 194 -180 52 -36 64 -50 60
-65 -4 -10 -2 -19 3 -19 11 0 46 -99 38 -107 -2 -3 -12 10 -22 29 -17 32 -17
32 -27 10 -6 -12 -17 -22 -26 -22 -18 1 -61 34 -61 47 0 12 -42 38 -65 39 -11
1 -38 9 -61 17 -29 11 -45 12 -59 4 -14 -7 -20 -7 -23 1 -2 7 -9 12 -15 12 -7
0 -30 17 -52 37 -22 21 -60 53 -84 72 -25 18 -54 42 -65 52 -21 20 -41 26 -31
9 8 -13 -11 -13 -36 1 -11 5 -16 15 -13 21 5 7 2 8 -5 3 -8 -4 -28 7 -54 31
l-40 39 20 -35 c11 -19 37 -63 58 -98 20 -35 35 -65 32 -68 -4 -5 -33 37 -120
173 -26 39 -52 75 -58 79 -14 8 54 -116 92 -170 16 -21 26 -44 22 -49 -3 -6
-1 -7 5 -3 15 9 21 -16 9 -39 -9 -17 -8 -18 5 -8 12 10 15 10 16 0 4 -29 22
-125 31 -160 11 -46 25 -64 17 -22 -6 27 -5 28 4 7 7 -16 7 -30 0 -42 -13 -25
-13 -30 4 -30 7 0 16 -14 19 -32 3 -18 9 -42 13 -52 5 -14 4 -17 -4 -12 -8 5
-12 0 -12 -13 0 -12 5 -20 12 -19 14 3 17 -23 18 -179 1 -62 5 -114 11 -114 5
-1 13 -2 18 -3 5 0 13 -5 18 -9 4 -5 3 -7 -4 -5 -15 4 -63 -60 -57 -76 3 -7
-4 -12 -16 -12 -23 0 -25 6 -8 27 8 9 6 8 -5 -2 -11 -10 -15 -22 -11 -33 5
-14 9 -15 15 -5 4 8 11 10 15 6 4 -4 2 -13 -4 -19 -7 -7 -12 -17 -12 -22 0 -6
5 -4 10 4 8 13 13 13 31 2 11 -8 18 -9 14 -3 -3 6 -1 11 4 11 6 0 11 -4 11 -8
0 -5 70 -9 156 -11 92 -1 154 1 150 7 -3 5 1 9 9 9 8 0 12 -4 10 -8 -3 -4 65
-8 150 -8 l155 -2 0 2776 c0 1526 -2 2775 -4 2775 -6 0 -83 -132 -101 -175
-61 -142 -109 -271 -130 -345 -13 -47 -45 -146 -70 -220 -48 -143 -53 -170
-32 -170 7 0 44 16 83 35 67 34 104 43 104 27 0 -17 -208 -145 -374 -231 -41
-21 -88 -49 -103 -61 -15 -12 -22 -19 -15 -15 6 3 12 2 12 -2 0 -12 -34 -40
-59 -48 -12 -3 -19 -10 -16 -14 4 -8 0 -13 -65 -74 -30 -28 -95 -66 -95 -55 0
3 -46 -28 -84 -57 -7 -5 -25 -22 -39 -37 -15 -16 -29 -28 -32 -28 -12 0 -100
-88 -100 -99 0 -6 -3 -11 -7 -11 -9 0 -79 -60 -70 -60 3 0 -21 -28 -55 -62
-33 -35 -72 -79 -86 -98 -44 -57 -236 -250 -249 -250 -7 0 -13 -4 -13 -9 0
-13 -58 -32 -65 -21 -13 21 8 81 37 105 16 14 24 25 17 25 -6 0 0 11 15 25 14
13 26 27 26 30 0 13 -20 3 -50 -25 -18 -16 -36 -30 -41 -30 -4 0 -29 -14 -54
-31 -67 -45 -75 -31 -16 31 28 29 51 57 51 62 0 5 -6 4 -12 -2 -29 -24 -269
-180 -308 -200 -23 -12 -52 -20 -64 -18 -13 1 -48 -15 -85 -40 -57 -38 -227
-102 -271 -102 -9 0 -33 -9 -55 -20 -45 -23 -49 -24 -40 -10 9 14 9 14 -112
-25 -59 -19 -133 -41 -163 -49 l-55 -15 45 4 c25 3 70 9 100 14 86 14 399 36
406 28 14 -14 -6 -18 -167 -32 -90 -8 -209 -20 -264 -25 -55 -6 -124 -11 -154
-12 -87 0 -98 -7 -93 -64 2 -27 3 -64 3 -82 0 -18 3 -30 7 -28 4 2 7 -56 7
-130 0 -74 4 -134 9 -134 5 0 7 -56 4 -128 -3 -71 -1 -136 4 -145 20 -37 188
-109 443 -192 101 -32 166 -67 152 -81 -3 -3 -16 0 -29 7 -12 7 -27 12 -31 11
-5 -1 -6 2 -2 8 3 6 -3 10 -15 10 -12 0 -19 3 -17 8 6 9 -154 9 -169 -1 -40
-24 -293 69 -363 133 -33 31 -34 31 -53 12 -21 -20 -26 -38 -27 -91 -1 -29 -3
-32 -16 -21 -13 10 -17 7 -30 -21 -8 -19 -14 -29 -14 -24 -1 22 50 165 85 239
l37 80 -7 110 c-4 61 -16 152 -27 201 -29 134 -37 179 -51 300 -31 262 -1
1232 48 1560 17 109 21 720 6 868 -4 42 -5 83 -1 89 14 22 29 -40 29 -115 0
-50 3 -67 10 -57 6 10 7 3 3 -24 -5 -31 -3 -37 7 -31 13 8 55 14 125 18 22 2
50 8 63 15 13 7 32 12 43 10 18 -3 17 -7 -16 -42 -27 -30 -38 -37 -47 -28 -15
15 -32 16 -23 2 3 -5 3 -16 -2 -22 -4 -7 -8 -17 -9 -23 0 -5 -2 -15 -2 -20 -1
-6 -11 -11 -22 -12 -15 -1 -20 4 -20 23 0 35 3 39 25 36 15 -2 17 0 8 9 -20
20 -75 -2 -96 -39 -16 -28 -17 -37 -7 -62 7 -17 9 -41 5 -57 -7 -26 -8 -26
-15 -8 -9 21 -13 -20 -14 -143 -1 -34 -4 -62 -8 -62 -5 0 -8 -4 -8 -10 0 -15
69 -30 138 -30 62 0 63 0 147 68 46 38 101 77 122 88 21 10 66 40 101 67 35
26 70 47 78 47 20 0 237 113 303 158 31 20 79 59 108 87 30 27 67 55 83 62 17
6 30 16 30 22 0 20 67 74 120 97 53 22 119 31 133 18 4 -4 -31 -26 -77 -49
-106 -53 -184 -115 -162 -127 16 -9 22 -38 8 -38 -4 0 -13 5 -19 11 -6 6 -17
8 -23 4 -9 -6 -9 -9 0 -15 9 -6 6 -11 -10 -20 -18 -10 -24 -9 -31 1 -7 11 -9
11 -9 -2 0 -19 -54 -69 -75 -69 -8 0 -30 -14 -49 -31 -19 -16 -63 -44 -98 -61
-70 -34 -110 -62 -101 -72 3 -3 12 -1 20 6 10 8 17 8 25 0 7 -7 10 -12 8 -13
-3 0 -18 -2 -35 -4 -52 -7 -76 -15 -70 -24 3 -5 -11 -9 -30 -8 -38 1 -75 -25
-75 -54 0 -10 -8 -23 -18 -28 -41 -22 -103 -88 -97 -103 4 -9 2 -19 -4 -23
-22 -13 -10 -20 28 -17 33 3 40 0 46 -17 4 -13 15 -21 27 -21 12 0 18 -3 15
-7 -4 -3 -37 -7 -74 -8 -67 -2 -203 -40 -203 -57 0 -4 -21 -8 -46 -8 -25 0
-54 -5 -64 -10 -10 -6 -32 -11 -47 -12 -15 -1 -31 -7 -35 -12 -4 -6 -10 -7
-14 -3 -4 3 -2 13 5 20 13 16 5 47 -13 47 -7 0 -6 4 3 9 9 6 10 11 2 15 -23
14 -48 -18 -65 -83 -31 -120 -42 -1221 -14 -1514 l11 -129 26 5 c169 31 502
142 666 222 154 75 172 87 330 206 77 58 196 143 265 189 77 51 154 113 200
160 92 95 170 159 286 236 49 32 95 65 103 72 8 7 50 31 95 52 45 21 110 55
146 76 36 20 94 52 130 72 36 19 105 59 154 88 49 30 91 54 94 54 5 0 22 21
47 55 8 11 21 56 30 100 28 136 120 389 187 513 16 31 59 107 94 168 35 61 64
114 64 117 0 3 16 33 35 67 l35 62 0 459 0 459 -35 -20 c-21 -12 -54 -20 -80
-20 l-45 0 0 40 c0 35 -3 40 -23 40 -13 0 -28 5 -34 11 -5 5 -34 9 -64 7 -45
-3 -56 -7 -64 -26 -6 -14 -22 -26 -38 -29 -16 -3 -36 -18 -45 -32 -25 -40
-182 -191 -198 -191 -4 0 -27 -22 -53 -49 -25 -26 -56 -51 -69 -55 -12 -4 -27
-16 -33 -27 -5 -11 -14 -17 -18 -14 -5 3 -12 -7 -15 -21 -5 -19 -11 -24 -25
-19 -24 7 -35 -19 -20 -47 8 -15 8 -19 0 -14 -12 8 -41 -16 -41 -33 0 -5 -13
-16 -30 -25 -16 -8 -30 -10 -30 -5 0 5 5 9 10 9 6 0 10 7 10 15 0 8 -7 15 -15
15 -12 0 -15 -13 -15 -55 0 -48 -3 -55 -19 -55 -16 0 -21 8 -24 43 l-4 42 -1
-43 c-2 -43 -2 -44 -34 -38 -18 3 -27 3 -20 0 6 -3 12 -12 12 -21 0 -8 9 -26
20 -40 11 -14 16 -30 12 -37 -4 -7 -8 -2 -10 12 -6 41 -22 22 -22 -27 0 -43
-3 -49 -22 -53 -22 -4 -23 -1 -23 58 1 34 -3 60 -7 58 -4 -3 -8 1 -9 8 0 7 -4
3 -9 -10 -5 -12 -7 -28 -4 -35 9 -23 -32 -101 -60 -117 -25 -13 -28 -12 -51
15 -20 22 -23 31 -13 42 9 11 9 17 -3 25 -11 7 -11 11 -1 15 14 5 17 63 3 63
-11 0 -24 -39 -21 -67 2 -26 -17 -48 -42 -49 -49 -2 -58 -5 -58 -19 0 -10 -10
-15 -28 -15 -15 0 -33 -5 -40 -12 -6 -6 -15 -8 -19 -4 -4 3 9 21 29 39 20 18
39 43 43 57 10 35 21 46 100 105 38 28 92 70 118 93 27 23 53 40 58 37 5 -4 9
12 9 34 0 22 11 71 25 109 14 38 25 85 25 105 0 19 11 68 25 109 14 40 25 78
25 84 0 6 21 49 47 95 66 120 70 129 78 182 4 32 3 47 -5 47 -6 0 -8 -5 -4
-12 5 -8 2 -9 -11 -4 -11 4 -22 2 -26 -6 -4 -7 -11 -9 -15 -5 -4 4 1 13 11 21
11 8 14 15 8 19 -6 4 -16 0 -23 -8 -7 -8 -17 -15 -22 -15 -6 0 -5 7 2 15 11
13 10 18 -6 30 -18 14 -18 14 -1 15 14 0 17 5 12 21 -5 16 -4 19 5 14 9 -6 10
0 5 23 -6 27 -4 30 14 25 16 -4 21 -1 21 13 0 11 -5 26 -10 34 -8 12 -10 10
-10 -9 0 -20 -4 -23 -29 -19 -17 2 -28 1 -25 -4 3 -4 -3 -22 -12 -39 -13 -26
-14 -33 -2 -41 9 -6 6 -7 -9 -3 -17 5 -23 2 -23 -9 0 -8 -10 -16 -22 -18 -12
-2 -28 -14 -35 -28 -7 -14 -18 -24 -25 -23 -12 2 -72 -68 -74 -88 -1 -5 -2
-13 -3 -19 0 -5 -8 -10 -17 -10 -11 0 -15 6 -11 20 3 11 1 20 -4 20 -5 0 -9
-6 -9 -14 0 -9 -12 -16 -27 -18 -19 -2 -29 -10 -31 -23 -3 -17 -1 -17 7 -5 8
11 11 12 11 2 0 -7 -7 -21 -16 -30 -15 -15 -16 -7 -12 108 7 180 -23 366 -78
487 -8 17 -14 36 -14 42 0 8 -82 11 -276 11 l-276 0 7 -22 c8 -29 25 -294 19
-322 -12 -68 -17 -85 -29 -126 -8 -25 -23 -80 -34 -123 -25 -97 -84 -184 -159
-235 -12 -8 -20 -17 -18 -20 3 -3 12 1 21 8 34 29 22 1 -18 -39 -85 -87 -243
-184 -369 -227 -72 -24 -178 -33 -178 -14 0 6 24 10 53 10 29 0 76 7 103 17
52 17 199 101 247 140 l28 22 -83 -5 c-92 -6 -107 -10 -228 -66 -163 -76 -190
-91 -178 -106 9 -10 4 -12 -28 -7 -25 4 -56 1 -85 -9 -49 -17 -213 -26 -226
-13 -13 13 -17 141 -4 133 6 -4 11 -32 11 -62 0 -38 4 -54 13 -54 8 0 17 3 21
7 3 4 17 8 29 10 35 5 49 12 43 22 -4 5 0 12 6 14 7 3 3 6 -9 6 -16 1 -21 6
-17 16 4 8 13 15 21 15 23 0 54 20 48 30 -4 6 -21 4 -42 -5 -19 -8 -39 -15
-44 -15 -17 0 -9 29 9 33 14 3 12 6 -8 14 -17 7 -29 7 -37 1 -9 -7 -13 -6 -13
3 0 11 -2 11 -10 -1 -8 -13 -10 -13 -10 1 0 9 -7 20 -16 23 -30 12 -37 6 -18
-15 l19 -22 -30 7 c-16 4 -41 14 -55 21 -14 8 -40 21 -59 29 -64 30 -176 109
-238 167 -34 33 -66 59 -72 59 -20 0 -26 -5 -22 -20 4 -21 -8 -7 -27 31 -11
20 -29 37 -47 42 -16 6 -33 16 -38 23 -4 7 -21 19 -37 28 -30 14 -30 14 -24
-12 5 -25 4 -25 -7 -7 -69 116 -98 145 -189 194 -44 24 -44 24 -26 3 11 -12
24 -22 29 -22 10 0 30 -22 48 -53 9 -17 8 -17 -11 -7 -25 13 -25 13 -35 -19
-5 -16 -4 -21 4 -17 14 9 14 8 -4 -61 -8 -31 -15 -75 -15 -98 0 -43 -19 -87
-21 -50 -1 11 0 52 0 90 l2 70 -19 -28 c-11 -16 -22 -24 -26 -19 -10 16 -23
134 -20 182 8 138 51 411 69 440 4 7 -178 10 -538 10 l-545 0 -4 -41z m-79
-536 c-44 -57 -58 -72 -63 -65 -3 5 4 15 15 22 10 8 19 18 19 23 0 11 23 36
34 37 5 0 2 -8 -5 -17z m-1783 -130 c-7 -7 -26 7 -26 19 0 6 6 6 15 -2 9 -7
13 -15 11 -17z m1294 -38 c0 -8 -91 -67 -97 -62 -3 3 14 19 38 36 39 29 59 38
59 26z m1650 -97 c0 -5 -4 -8 -10 -8 -5 0 -10 10 -10 23 0 18 2 19 10 7 5 -8
10 -18 10 -22z m-710 -138 c0 -5 -4 -10 -10 -10 -5 0 -10 5 -10 10 0 6 5 10
10 10 6 0 10 -4 10 -10z m1647 -47 c-3 -10 -5 -2 -5 17 0 19 2 27 5 18 2 -10
2 -26 0 -35z m-727 -17 c0 -8 7 -19 15 -26 12 -10 15 -10 16 1 0 8 4 5 9 -6
10 -24 13 -51 3 -42 -3 4 -12 2 -19 -4 -7 -6 -23 -8 -34 -4 -19 6 -21 12 -16
41 6 28 4 33 -9 28 -10 -4 -15 0 -15 11 0 11 5 15 15 11 8 -3 15 -1 15 5 0 6
5 7 10 4 6 -3 10 -12 10 -19z m-1375 4 c3 -5 1 -10 -4 -10 -6 0 -11 5 -11 10
0 6 2 10 4 10 3 0 8 -4 11 -10z m1471 -37 c8 -9 15 -10 19 -3 3 6 18 7 33 4
39 -10 48 -17 29 -23 -24 -9 -5 -33 27 -33 20 0 26 -5 26 -24 0 -12 7 -29 15
-38 8 -8 15 -23 15 -33 0 -13 3 -14 8 -6 15 24 43 -83 45 -173 1 -30 -1 -54
-4 -54 -3 0 -6 -12 -7 -27 0 -22 4 -28 21 -29 41 -3 61 -11 65 -25 3 -8 13
-26 23 -41 11 -14 19 -33 19 -42 0 -10 6 -13 15 -10 10 4 15 0 15 -12 0 -11 2
-37 5 -59 3 -22 3 -34 -1 -27 -3 6 -10 10 -14 7 -5 -3 -38 23 -73 57 -35 35
-76 71 -90 82 -15 10 -34 24 -42 30 -11 8 -17 32 -19 75 -2 34 -8 66 -14 70
-7 4 -12 20 -13 37 -1 16 -5 38 -10 49 -4 11 -12 36 -17 55 -5 21 -17 39 -30
45 -12 5 -22 17 -22 25 0 8 -9 31 -19 51 -11 20 -22 54 -25 75 -3 22 -3 32 1
24 3 -8 12 -20 19 -27z m-1521 7 c-20 -22 -65 -26 -96 -9 -33 17 -11 29 53 29
60 0 61 0 43 -20z m138 13 c-7 -2 -19 -2 -25 0 -7 3 -2 5 12 5 14 0 19 -2 13
-5z m408 -34 c18 -18 19 -24 8 -57 -6 -20 -18 -43 -27 -49 -13 -11 -13 -13 -1
-14 8 0 3 -5 -10 -10 -31 -12 -37 -5 -23 26 17 36 -8 44 -48 15 -16 -12 -30
-17 -30 -11 0 5 15 18 33 30 17 11 41 36 51 55 11 20 21 36 23 36 1 0 12 -9
24 -21z m1649 17 c0 -2 -9 -6 -20 -9 -11 -3 -18 -1 -14 4 5 9 34 13 34 5z
m-1700 -216 c0 -11 4 -20 10 -20 5 0 19 -21 30 -47 17 -38 30 -52 65 -69 24
-11 42 -17 39 -12 -3 4 2 5 10 2 9 -3 16 -12 16 -20 0 -8 9 -14 20 -14 11 0
20 -5 20 -12 0 -6 3 -8 6 -5 4 4 16 -3 26 -16 11 -12 28 -32 38 -44 16 -18 24
-21 50 -13 24 7 38 5 58 -7 39 -24 65 -52 82 -87 13 -27 22 -32 70 -38 30 -3
89 -13 130 -22 41 -8 87 -15 102 -15 29 -1 118 -56 118 -73 0 -5 14 -23 30
-38 27 -25 34 -27 60 -18 17 5 30 14 30 19 0 5 24 20 52 34 77 37 138 18 138
-43 0 -15 7 -37 15 -48 8 -12 12 -24 8 -28 -3 -3 3 -25 15 -48 12 -24 23 -51
26 -60 6 -20 41 -24 51 -8 4 6 2 17 -4 24 -16 19 -3 26 29 14 33 -11 47 -42
30 -63 -19 -23 -4 -43 37 -51 l38 -7 -35 -16 c-19 -9 -37 -18 -40 -21 -14 -14
-100 -24 -100 -11 0 6 -5 11 -11 11 -8 0 -8 -5 1 -15 7 -8 10 -16 6 -16 -3 -1
-10 -3 -16 -4 -5 -1 -13 -3 -16 -4 -4 0 1 -13 11 -27 9 -14 14 -29 10 -32 -3
-4 -10 0 -15 8 -6 10 -10 -46 -10 -154 0 -142 -3 -180 -21 -240 -12 -39 -30
-82 -40 -95 -11 -13 -19 -27 -19 -32 0 -5 -24 -48 -54 -97 -29 -49 -81 -142
-114 -208 -41 -79 -85 -147 -133 -204 -83 -98 -90 -105 -146 -143 -34 -24 -45
-27 -62 -17 -22 11 -28 36 -11 42 5 2 11 13 13 25 2 12 6 26 10 29 14 14 6
102 -18 203 -14 57 -29 109 -33 116 -4 7 -27 30 -52 50 -45 38 -41 39 33 12
75 -27 110 -88 143 -242 l6 -30 46 52 c26 28 63 77 82 109 34 57 35 60 34 162
-1 62 -6 108 -13 115 -8 8 -11 3 -11 -20 0 -18 -3 -34 -8 -37 -30 -18 -226 78
-236 117 -4 17 -1 19 31 14 33 -6 34 -5 19 12 -9 10 -16 22 -16 28 0 5 -9 18
-20 28 -33 30 -23 38 18 15 20 -12 55 -44 77 -72 45 -57 86 -98 98 -98 8 0 4
30 -15 130 -18 89 -42 127 -110 171 -34 21 -66 39 -72 39 -6 0 -27 15 -47 33
-20 18 -41 31 -47 29 -7 -2 -12 0 -12 5 0 13 -69 14 -145 2 -75 -12 -193 -62
-237 -100 -21 -19 -26 -31 -23 -52 3 -15 1 -27 -5 -27 -5 0 -10 -8 -10 -19 0
-10 -7 -24 -15 -31 -8 -7 -15 -18 -15 -25 0 -12 -23 -43 -59 -80 -24 -24 -38
-75 -22 -75 7 0 5 -9 -5 -25 -9 -14 -12 -25 -6 -25 6 0 14 5 17 10 3 6 13 10
21 10 12 0 13 -4 3 -21 -10 -20 -9 -21 17 -15 21 5 25 4 14 -3 -25 -17 -5 -21
50 -11 29 5 91 9 139 8 47 0 71 -3 54 -5 -33 -4 -43 -17 -20 -26 6 -3 2 -6
-10 -6 -12 -1 -23 -4 -25 -9 -1 -4 -34 -15 -73 -25 -48 -13 -77 -27 -92 -44
-13 -14 -23 -29 -23 -33 0 -4 25 -23 55 -41 30 -18 55 -40 55 -49 0 -8 28 -30
65 -49 35 -19 62 -37 60 -39 -3 -3 -33 2 -67 11 -35 9 -128 30 -208 46 -80 17
-177 37 -217 46 l-71 17 -9 106 c-4 59 -8 244 -7 412 1 240 4 319 17 370 8 36
16 53 16 39 1 -42 51 -51 51 -9 0 10 15 28 35 40 19 12 39 29 44 37 7 14 17
12 75 -17 36 -18 68 -42 72 -52 3 -10 18 -26 32 -35 54 -33 93 -83 95 -122 1
-36 1 -37 20 -18 27 27 33 13 8 -19 -44 -56 -18 -69 64 -31 102 48 185 70 240
64 29 -3 61 -10 71 -15 11 -6 49 -22 87 -37 37 -15 71 -34 75 -41 6 -11 13 -8
29 13 11 16 43 37 71 47 53 21 70 44 98 134 12 38 5 58 -11 32 -3 -5 -14 -10
-23 -10 -10 0 -41 -16 -71 -36 -48 -33 -53 -39 -47 -65 4 -22 2 -29 -9 -29
-16 0 -21 46 -7 65 4 6 39 32 77 58 67 45 108 87 85 87 -5 0 -10 -4 -10 -10 0
-5 -4 -10 -10 -10 -5 0 -10 6 -10 14 0 15 -46 37 -86 42 -21 2 -24 -2 -23 -29
1 -29 2 -30 8 -8 7 25 31 42 31 22 0 -6 -4 -11 -9 -11 -5 0 -7 -9 -4 -20 4
-14 0 -20 -11 -20 -10 0 -16 -9 -16 -25 0 -15 -7 -28 -17 -32 -10 -4 -31 -20
-46 -35 -16 -15 -33 -25 -39 -22 -6 4 2 13 18 20 l29 14 -30 -7 c-56 -12 -211
2 -269 25 l-38 15 7 50 c3 28 9 55 12 60 11 18 75 38 153 48 43 5 91 16 107
24 15 8 34 15 41 15 18 0 15 12 -11 40 -13 14 -32 40 -42 58 -11 17 -22 32
-26 32 -3 0 -19 12 -34 26 -15 14 -34 23 -42 20 -8 -3 -12 -2 -9 3 6 10 -24
25 -32 16 -3 -3 1 -5 8 -5 7 0 11 -2 8 -5 -9 -9 -38 7 -32 17 6 10 -7 9 -111
-8 -62 -10 -31 12 44 31 l64 16 66 -32 c36 -18 71 -37 77 -43 6 -6 27 -20 47
-31 21 -11 40 -28 43 -38 3 -11 12 -16 20 -13 9 3 12 1 9 -4 -3 -6 -2 -10 4
-10 32 0 13 54 -32 91 -14 10 -17 18 -9 23 6 4 25 -8 42 -25 16 -18 30 -28 30
-22 0 14 -31 107 -39 115 -24 28 -314 40 -368 16 -15 -7 -30 -15 -33 -18 -3
-3 -24 -12 -47 -20 -36 -11 -52 -11 -97 0 -48 11 -60 11 -104 -5 -54 -20 -82
-12 -82 24 0 13 2 14 9 2 14 -21 71 -18 88 5 13 17 11 20 -14 30 -15 7 -43 15
-60 19 -30 6 -33 4 -33 -17 -1 -20 -2 -21 -13 -8 -21 28 -108 70 -142 70 -19
0 -40 3 -49 6 -27 10 -18 24 17 24 l32 1 -39 20 c-21 11 -45 22 -55 25 -123
31 -139 41 -96 64 20 11 29 11 49 1 31 -17 138 -5 186 20 19 11 44 19 56 19
29 0 34 17 34 116 0 49 4 84 10 84 6 0 10 -9 10 -20z m3770 -90 c0 -11 -4 -20
-10 -20 -5 0 -10 9 -10 20 0 11 5 20 10 20 6 0 10 -9 10 -20z m-3953 -16 c-3
-3 -12 -4 -19 -1 -8 3 -5 6 6 6 11 1 17 -2 13 -5z m-162 -102 c-3 -3 -15 -7
-28 -9 -21 -4 -21 -3 -2 11 18 13 44 12 30 -2z m3555 -87 c-34 -20 -60 -20
-34 0 10 8 28 14 39 14 18 0 17 -1 -5 -14z m77 -11 c-3 -3 -12 -4 -19 -1 -8 3
-5 6 6 6 11 1 17 -2 13 -5z m-4347 -95 c0 -3 13 -22 30 -40 16 -19 39 -52 51
-73 l22 -39 -26 19 c-15 10 -27 21 -27 24 0 3 -27 43 -60 90 -67 95 -77 122
-25 64 19 -21 35 -41 35 -45z m930 -14 c0 -8 -7 -15 -15 -15 -26 0 -18 20 13
29 1 1 2 -6 2 -14z m112 -57 c-7 -7 -12 -8 -12 -2 0 14 12 26 19 19 2 -3 -1
-11 -7 -17z m671 -21 c45 -31 23 -31 -32 1 -28 16 -48 32 -45 35 7 7 34 -6 77
-36z m1342 33 c-6 -10 31 -14 100 -11 17 1 37 -3 45 -9 11 -7 -15 -10 -85 -10
-55 0 -107 5 -115 10 -13 8 -12 10 3 10 9 0 17 5 17 10 0 6 9 10 21 10 11 0
17 -4 14 -10z m35 -55 c0 -8 -4 -15 -10 -15 -5 0 -10 -8 -10 -18 0 -24 -8 -32
-26 -25 -16 6 -19 33 -5 33 5 0 13 9 16 20 7 23 35 27 35 5z m-434 -33 c-15
-15 -15 -15 -4 10 7 15 15 23 17 17 2 -6 -4 -18 -13 -27z m1354 28 c0 -5 -5
-10 -11 -10 -5 0 -7 5 -4 10 3 6 8 10 11 10 2 0 4 -4 4 -10z m-4227 -77 c54
-91 67 -120 47 -108 -9 5 -11 4 -6 -4 4 -6 11 -9 16 -6 5 3 12 -6 16 -20 3
-14 10 -25 14 -25 4 0 10 -9 13 -21 4 -13 10 -18 17 -14 7 4 16 1 21 -6 6 -9
8 28 5 96 -5 113 -4 112 15 -40 6 -49 20 -116 30 -149 19 -59 25 -136 12 -136
-23 0 -181 297 -222 415 -12 33 -26 62 -31 63 -12 4 -14 32 -2 32 4 0 29 -35
55 -77z m2824 2 c-29 -26 -61 -31 -87 -15 -11 7 -6 10 20 10 19 0 46 7 60 15
37 21 39 18 7 -10z m-3552 -117 c-4 -40 -9 -75 -11 -77 -6 -7 -5 116 2 133 13
33 16 14 9 -56z m3985 68 c0 -3 -4 -8 -10 -11 -5 -3 -10 -1 -10 4 0 6 5 11 10
11 6 0 10 -2 10 -4z m-50 -50 c0 -2 -7 -7 -16 -10 -8 -3 -12 -2 -9 4 6 10 25
14 25 6z m-256 -125 c3 -5 -1 -14 -9 -21 -12 -10 -21 -10 -40 -2 -14 6 -40 9
-57 7 -30 -4 -30 -4 7 9 47 17 91 20 99 7z m-3841 -186 c2 -60 0 -99 -4 -85
-4 14 -7 70 -7 125 0 125 6 105 11 -40z m4594 129 c-3 -3 -12 -4 -19 -1 -8 3
-5 6 6 6 11 1 17 -2 13 -5z m-1047 -24 c0 -5 -5 -10 -11 -10 -5 0 -7 5 -4 10
3 6 8 10 11 10 2 0 4 -4 4 -10z m-1030 -265 c0 -9 -63 -75 -72 -75 -9 0 -2 54
9 73 4 8 63 10 63 2z m81 -5 c10 -6 19 -17 19 -24 0 -8 8 -12 23 -9 14 2 42
-9 77 -33 30 -20 46 -33 35 -29 -31 12 -137 34 -181 37 -42 4 -56 26 -34 53
15 18 34 19 61 5z m-117 -110 c137 -7 221 -21 241 -41 14 -14 -22 -11 -79 6
-61 19 -129 20 -124 3 3 -7 23 -17 46 -23 48 -12 71 -30 27 -22 -16 4 -52 9
-80 12 -27 3 -83 13 -122 22 -66 14 -73 18 -73 40 0 16 4 22 11 17 7 -4 75
-10 153 -14z m-631 -402 c3 -50 1 -85 -4 -82 -5 3 -9 47 -8 97 1 110 6 104 12
-15z m4444 16 c-3 -3 -12 -4 -19 -1 -8 3 -5 6 6 6 11 1 17 -2 13 -5z m-5598
-326 c-2 -90 -2 -208 0 -263 4 -128 -14 -316 -39 -419 -11 -44 -23 -82 -27
-85 -3 -3 -2 8 3 24 4 17 8 47 8 67 0 21 3 32 7 26 5 -7 7 3 7 22 -1 19 4 64
10 100 7 36 12 160 12 280 0 210 9 410 17 410 3 0 3 -73 2 -162z m-972 110
c-3 -8 -6 -5 -6 6 -1 11 2 17 5 13 3 -3 4 -12 1 -19z m5313 -112 c0 -8 -4 -18
-10 -21 -5 -3 -10 3 -10 14 0 12 5 21 10 21 6 0 10 -6 10 -14z m-5321 -115
c-1 -84 -3 -93 -14 -71 -16 31 -26 121 -18 160 4 25 8 28 19 19 11 -9 14 -37
13 -108z m130 -42 c-12 -57 -24 -116 -27 -131 -2 -16 -9 -28 -15 -28 -18 0 0
136 30 211 15 39 29 66 31 61 1 -5 -7 -56 -19 -113z m910 -133 c2 -132 -6 -80
-12 74 -3 94 -2 120 3 75 4 -38 8 -106 9 -149z m128 82 c-3 -8 -6 -5 -6 6 -1
11 2 17 5 13 3 -3 4 -12 1 -19z m1923 -49 c0 -46 -9 -100 -24 -153 -28 -95
-56 -213 -56 -239 0 -10 -4 -15 -10 -12 -5 3 -10 -3 -10 -14 0 -11 -4 -23 -10
-26 -5 -3 -10 -14 -10 -24 0 -23 -87 -223 -103 -236 -15 -12 -51 -67 -52 -78
0 -4 -4 -11 -10 -15 -5 -4 -19 -23 -29 -42 -25 -45 -43 -62 -83 -76 -24 -9
-36 -9 -48 0 -13 10 -13 18 9 77 24 67 30 80 125 268 28 56 59 124 68 150 8
25 21 53 28 61 7 8 15 46 19 84 4 39 13 75 22 83 8 8 21 28 29 44 9 16 20 29
25 29 5 0 19 18 31 40 24 42 34 49 42 28 2 -7 8 14 12 47 8 65 11 75 26 75 5
0 9 -32 9 -71z m-73 -11 c-2 -13 -4 -3 -4 22 0 25 2 35 4 23 2 -13 2 -33 0
-45z m-1750 -110 c-2 -29 -3 -8 -3 47 0 55 1 79 3 53 2 -26 2 -71 0 -100z
m212 15 c1 -64 26 -262 47 -363 36 -180 126 -504 146 -525 6 -6 7 -1 4 15 -40
173 -113 770 -95 770 4 0 10 -37 14 -82 14 -183 39 -374 75 -594 33 -200 45
-247 85 -350 117 -298 202 -614 166 -614 -6 0 -11 12 -11 26 0 46 -40 227 -69
309 -53 152 -106 286 -109 276 -2 -5 15 -72 38 -148 38 -128 66 -264 50 -246
-4 4 -12 40 -19 78 -7 39 -30 126 -51 195 -21 69 -49 161 -61 205 -12 44 -41
145 -64 225 -80 270 -109 395 -141 595 -16 104 -29 384 -14 320 5 -22 9 -63 9
-92z m3671 18 c0 -22 -15 -35 -29 -27 -13 9 -1 46 15 46 8 0 14 -9 14 -19z
m-4025 -66 c-4 -25 -9 -44 -12 -41 -2 2 -1 25 2 51 4 25 9 44 12 41 2 -2 1
-25 -2 -51z m-1028 -57 c-3 -8 -6 -5 -6 6 -1 11 2 17 5 13 3 -3 4 -12 1 -19z
m6709 -7 c-10 -11 -15 -25 -10 -32 4 -8 3 -10 -4 -5 -7 4 -32 -14 -60 -41 -70
-68 -251 -236 -292 -269 -19 -16 -44 -37 -55 -47 -11 -10 -41 -32 -67 -49 -52
-34 -52 -34 -39 -43 6 -3 32 14 59 37 27 24 77 68 112 98 35 30 75 66 90 80
45 41 84 70 94 70 13 0 -164 -164 -242 -224 -15 -11 -29 -23 -32 -26 -3 -3
-33 -27 -67 -54 -64 -48 -85 -73 -35 -40 18 11 23 12 15 3 -11 -14 -97 -73
-237 -164 -73 -48 -234 -206 -362 -355 -138 -161 -318 -359 -322 -355 -4 4 26
40 113 135 33 36 116 130 185 210 152 177 274 299 360 362 36 26 77 57 92 70
16 13 33 22 39 20 6 -1 8 2 5 7 -4 5 -2 12 4 16 6 4 8 11 5 16 -3 5 1 6 9 3 9
-4 16 -1 16 6 0 7 8 10 20 7 11 -3 18 -2 15 3 -2 4 4 15 15 25 11 10 17 22 14
26 -3 5 1 6 9 3 8 -3 18 -1 22 5 11 19 -31 12 -59 -10 -22 -17 -25 -24 -14
-31 10 -7 9 -8 -5 -4 -9 3 -35 -4 -57 -15 -45 -23 -50 -30 -20 -24 11 2 18 0
15 -4 -2 -5 -22 -11 -42 -15 -21 -3 -69 -22 -107 -41 -86 -45 -165 -71 -268
-91 -44 -8 -103 -26 -131 -38 -29 -13 -142 -59 -252 -101 -110 -43 -242 -98
-294 -122 -51 -24 -95 -42 -97 -40 -11 11 252 127 471 208 77 28 156 59 175
69 19 10 67 25 105 35 39 9 75 20 80 24 6 4 39 18 75 31 36 12 76 30 90 39 14
8 30 16 35 17 39 5 40 6 20 15 -17 8 -15 8 8 4 25 -5 32 1 29 26 -1 4 8 4 20
1 16 -4 19 -2 13 8 -5 8 -4 11 3 6 19 -11 209 105 220 135 2 5 9 9 15 9 16 0
67 48 67 62 0 7 4 7 14 -1 10 -8 16 -8 25 2 6 8 7 17 3 21 -4 5 2 6 13 4 15
-2 19 2 18 18 -1 12 9 32 22 44 14 13 25 18 25 12 0 -6 -10 -18 -22 -26 -12
-9 -19 -19 -15 -23 4 -4 23 9 42 28 24 25 31 39 24 50 -13 21 -11 25 13 26 16
2 19 0 9 -6 -7 -5 -12 -14 -10 -19 2 -6 21 4 43 22 21 19 34 36 30 38 -5 3 -4
4 2 2 6 -1 24 11 39 28 23 24 26 32 14 40 -11 8 -10 9 5 4 13 -4 28 3 48 24
16 17 33 28 38 25 5 -3 11 3 14 12 3 10 16 23 28 29 33 16 33 16 14 -5z
m-5529 -98 c-3 -10 -5 -2 -5 17 0 19 2 27 5 18 2 -10 2 -26 0 -35z m-240 -5
c-3 -7 -5 -2 -5 12 0 14 2 19 5 13 2 -7 2 -19 0 -25z m-1166 -11 c-13 -13 -26
-3 -16 12 3 6 11 8 17 5 6 -4 6 -10 -1 -17z m5606 -19 c-3 -8 -6 -5 -6 6 -1
11 2 17 5 13 3 -3 4 -12 1 -19z m-5284 -108 c6 -8 1 -6 -12 5 -25 22 -51 66
-51 87 0 7 12 -7 26 -32 14 -25 31 -52 37 -60z m882 40 c-9 -28 -19 -50 -21
-48 -2 2 4 27 13 56 9 28 19 50 21 47 2 -2 -4 -27 -13 -55z m893 -120 c0 -28
-3 -23 -14 25 -17 75 -16 103 1 50 8 -22 13 -56 13 -75z m45 73 c19 -44 35
-88 84 -238 48 -146 81 -226 98 -239 8 -6 28 -47 44 -91 16 -44 43 -115 59
-157 17 -43 28 -78 26 -78 -6 0 -67 125 -129 265 -31 72 -63 144 -70 160 -44
99 -55 130 -51 142 3 8 2 12 -3 9 -11 -7 -91 220 -91 258 0 19 19 1 33 -31z
m-1116 -35 c-3 -8 -6 -5 -6 6 -1 11 2 17 5 13 3 -3 4 -12 1 -19z m134 -36
c-23 -59 -78 -159 -92 -168 -5 -3 6 21 24 53 19 32 44 84 57 115 13 32 25 56
27 54 2 -2 -5 -26 -16 -54z m288 -52 c7 -36 25 -111 41 -166 16 -56 34 -139
40 -185 6 -46 14 -111 19 -144 5 -33 7 -63 5 -67 -3 -4 -1 -9 4 -12 4 -2 6
-21 4 -42 -6 -46 -18 -28 -27 39 -5 30 -10 45 -15 37 -6 -10 -10 -8 -18 6 -30
58 -52 206 -77 534 -8 99 6 99 24 0z m2690 -190 c6 -107 10 -231 10 -275 -2
-148 -16 -23 -23 200 -4 116 -11 233 -14 260 -4 28 -5 59 -3 70 9 38 20 -57
30 -255z m-3969 241 c0 -10 -7 -22 -16 -25 -22 -8 -27 -2 -19 23 8 26 35 28
35 2z m862 10 c8 11 9 11 6 1 -4 -16 -22 -18 -24 -2 -2 7 -1 6 3 -1 4 -8 8 -7
15 2z m368 -412 c24 -124 67 -275 109 -381 35 -88 112 -251 122 -258 3 -3 15
-22 26 -42 11 -21 23 -35 25 -32 7 6 79 -133 108 -207 26 -69 60 -201 59 -231
-1 -29 -2 -24 -29 91 -12 52 -26 102 -30 110 -4 9 -26 54 -48 101 -22 47 -57
101 -76 119 -20 19 -36 38 -36 42 0 4 -29 68 -65 141 -46 94 -65 124 -64 103
1 -16 0 -50 -1 -75 -2 -34 -6 -21 -15 54 -7 55 -12 104 -11 110 2 6 1 7 -2 2
-2 -4 -9 -2 -14 5 -7 10 -8 8 -5 -8 3 -13 0 -26 -5 -29 -8 -5 -9 15 -4 62 6
59 2 86 -24 185 -42 162 -60 295 -58 434 l1 120 8 -154 c5 -84 18 -202 29
-262z m3784 386 c-4 -8 -13 -15 -22 -15 -13 0 -12 3 4 15 24 18 25 18 18 0z
m-4164 -26 c0 -6 -4 -7 -10 -4 -5 3 -10 11 -10 16 0 6 5 7 10 4 6 -3 10 -11
10 -16z m2837 -26 c-3 -10 -5 -4 -5 12 0 17 2 24 5 18 2 -7 2 -21 0 -30z
m-2872 -47 c-33 -66 -38 -69 -19 -13 9 26 20 47 25 47 4 0 6 8 2 18 -4 12 -3
14 5 7 9 -8 5 -24 -13 -59z m1133 -1 c0 -16 -2 -15 -8 5 -4 14 -8 34 -8 45 0
16 2 15 8 -5 4 -14 8 -34 8 -45z m4266 5 c-12 -5 -25 -13 -29 -19 -7 -13 -25
-15 -25 -3 0 11 39 31 60 31 8 0 5 -4 -6 -9z m-2537 -52 c-3 -7 -5 -2 -5 12 0
14 2 19 5 13 2 -7 2 -19 0 -25z m-1709 -38 c0 -9 -3 -7 -8 5 -5 11 -8 29 -8
40 0 16 2 15 8 -5 4 -14 8 -32 8 -40z m-1763 15 c-58 -51 -242 -181 -210 -148
16 17 238 183 244 183 3 0 -12 -16 -34 -35z m5925 15 c0 -5 -4 -10 -10 -10 -5
0 -10 5 -10 10 0 6 5 10 10 10 6 0 10 -4 10 -10z m-2463 -42 c-3 -8 -6 -5 -6
6 -1 11 2 17 5 13 3 -3 4 -12 1 -19z m-1637 -199 c23 -74 25 -98 6 -54 -19 44
-66 213 -65 233 0 9 9 -12 20 -48 10 -36 28 -95 39 -131z m-1500 167 c0 -3
-18 -15 -40 -27 -21 -12 -37 -25 -35 -29 2 -3 -3 -20 -12 -36 -9 -17 -15 -51
-15 -81 l1 -53 -69 0 c-70 0 -83 6 -85 42 -2 27 -8 29 -46 17 -19 -6 -41 -12
-49 -13 -8 -1 -25 -8 -37 -14 -26 -15 -36 -15 -28 -2 9 15 212 121 310 162 89
37 105 42 105 34z m3127 -18 c-3 -8 -6 -5 -6 6 -1 11 2 17 5 13 3 -3 4 -12 1
-19z m-1501 -126 c-6 -6 -26 43 -25 61 0 7 7 -3 15 -22 8 -18 13 -36 10 -39z
m1173 36 c30 -28 33 -35 29 -77 -3 -26 -25 -88 -51 -143 -25 -53 -53 -123 -61
-155 -9 -32 -22 -63 -31 -69 -8 -6 -15 -16 -15 -23 0 -6 -9 -11 -20 -11 -10 0
-24 -8 -29 -17 -8 -13 -10 -14 -11 -4 0 8 -3 11 -7 8 -3 -4 -13 2 -21 14 -10
14 -18 17 -25 10 -7 -7 -6 -15 2 -25 7 -8 10 -19 7 -25 -4 -5 1 -17 11 -26 15
-16 15 -18 1 -26 -10 -5 -14 -17 -11 -29 5 -18 3 -19 -26 -9 -32 11 -43 45
-18 55 17 6 15 67 -3 88 -6 9 -9 20 -5 26 4 6 15 48 26 93 27 111 45 158 101
254 41 69 88 117 118 122 3 1 20 -13 39 -31z m-3374 -8 c-3 -5 -12 -10 -18
-10 -7 0 -6 4 3 10 19 12 23 12 15 0z m765 -25 c0 -12 -108 -57 -200 -84 -56
-16 -104 -32 -108 -35 -3 -3 24 -7 59 -8 56 -1 58 -2 17 -5 -27 -2 -48 -8 -48
-14 0 -16 -85 -10 -152 11 -34 11 -72 20 -83 21 -51 3 49 17 135 18 106 2 199
22 305 68 39 17 71 31 73 32 1 1 2 -1 2 -4z m1277 -67 c-3 -8 -6 -5 -6 6 -1
11 2 17 5 13 3 -3 4 -12 1 -19z m-1950 -34 c-3 -3 -12 -4 -19 -1 -8 3 -5 6 6
6 11 1 17 -2 13 -5z m43 -14 c8 -5 11 -10 5 -10 -5 0 -17 5 -25 10 -8 5 -10
10 -5 10 6 0 17 -5 25 -10z m1917 -12 c-3 -8 -6 -5 -6 6 -1 11 2 17 5 13 3 -3
4 -12 1 -19z m67 -38 c5 -17 4 -20 -2 -10 -5 8 -13 26 -16 40 -5 17 -4 20 2
10 5 -8 13 -26 16 -40z m1803 -22 c-3 -7 -5 -2 -5 12 0 14 2 19 5 13 2 -7 2
-19 0 -25z m-1856 -249 c0 -146 -5 -277 -14 -349 -8 -63 -13 -123 -11 -132 1
-10 -1 -18 -6 -18 -5 0 -6 -16 -3 -37 4 -26 3 -34 -5 -29 -8 5 -10 -3 -7 -26
4 -29 4 -30 -4 -8 -5 14 -9 19 -10 11 -1 -8 -3 -12 -5 -10 -2 2 0 29 6 59 11
63 12 73 34 270 13 110 15 191 10 335 -4 129 -3 186 4 179 6 -6 11 -98 11
-245z m2509 237 c0 -3 -4 -8 -10 -11 -5 -3 -10 -1 -10 4 0 6 5 11 10 11 6 0
10 -2 10 -4z m-663 -48 c-3 -7 -5 -2 -5 12 0 14 2 19 5 13 2 -7 2 -19 0 -25z
m-305 -45 c-52 -62 -89 -96 -132 -122 -62 -37 -55 -22 13 27 36 26 84 69 107
95 54 61 64 61 12 0z m-2032 -18 c0 -5 -5 -3 -10 5 -5 8 -10 20 -10 25 0 6 5
3 10 -5 5 -8 10 -19 10 -25z m2321 -56 l-11 -34 5 34 c3 18 6 48 7 65 l1 31 4
-31 c2 -18 -1 -47 -6 -65z m145 -159 c-9 -219 -13 -260 -25 -290 -12 -28 -11
-24 10 198 7 67 10 168 7 225 -5 78 -4 94 4 67 6 -22 8 -98 4 -200z m395 187
c-13 -13 -26 -3 -16 12 3 6 11 8 17 5 6 -4 6 -10 -1 -17z m-2831 -31 c0 -12
-5 -7 -19 24 -11 24 -11 24 3 6 9 -11 16 -24 16 -30z m-1195 -36 c3 -5 -1 -10
-9 -10 -9 0 -16 5 -16 10 0 6 4 10 9 10 6 0 13 -4 16 -10z m1244 -63 c27 -59
91 -232 91 -246 -1 -14 -20 30 -48 110 -17 47 -42 109 -56 139 -28 57 -29 60
-21 60 2 0 18 -29 34 -63z m-332 16 c-3 -10 -5 -4 -5 12 0 17 2 24 5 18 2 -7
2 -21 0 -30z m2092 3 c-13 -11 -90 -56 -96 -56 -4 0 15 15 42 34 28 18 52 32
54 30 2 -2 2 -6 0 -8z m461 -23 c-11 -17 -11 -17 -6 0 3 10 6 24 7 30 0 9 2 9
5 0 3 -7 0 -20 -6 -30z m-641 6 c29 16 14 -45 -16 -64 -35 -23 -46 -7 -25 38
9 21 18 33 20 28 2 -7 10 -8 21 -2z m2125 -51 c-16 -18 -30 -35 -31 -37 -2 -2
-6 -2 -9 2 -9 9 38 67 55 67 10 0 6 -10 -15 -32z m-1514 7 c0 -8 -4 -15 -10
-15 -5 0 -7 7 -4 15 4 8 8 15 10 15 2 0 4 -7 4 -15z m23 -22 c-3 -18 -9 -30
-14 -28 -4 3 -3 19 3 36 13 37 17 34 11 -8z m-591 -5 c-31 -19 -33 -24 -29
-64 3 -31 -1 -53 -14 -73 -19 -31 -66 -61 -85 -54 -17 6 -38 -33 -68 -127 -16
-47 -32 -95 -36 -107 -7 -18 -4 -26 18 -42 23 -17 24 -20 8 -21 -13 0 -16 -4
-9 -12 21 -28 9 -53 -29 -62 -61 -15 -44 -27 35 -24 46 2 71 7 70 14 -1 6 9
17 22 24 14 7 25 17 25 21 0 5 18 17 40 28 l40 19 -2 -48 c-1 -27 -5 -47 -9
-45 -3 2 -6 -15 -7 -38 -1 -37 -16 -117 -28 -155 -3 -10 -10 -9 -31 5 -64 43
-134 72 -223 92 -52 12 -105 27 -117 33 -12 6 -40 8 -62 5 -48 -6 -45 7 5 28
29 12 34 18 29 36 -8 25 18 98 53 152 25 38 25 40 14 125 -7 49 -18 91 -25 97
-10 7 -11 19 -6 40 6 20 4 32 -4 37 -8 5 -6 8 7 8 10 0 39 7 65 15 48 15 193
35 201 28 3 -3 -11 -18 -30 -34 -40 -34 111 55 164 96 17 14 36 25 41 25 6 0
-5 -10 -23 -22z m-1320 -50 c-3 -10 -1 -11 9 0 7 6 20 12 29 12 8 -1 3 -7 -13
-16 -16 -9 -31 -13 -34 -10 -3 3 -12 -2 -20 -10 -8 -8 -19 -12 -24 -9 -13 8
-11 39 2 52 15 15 55 0 51 -19z m2262 -1 c17 -13 47 -32 67 -41 40 -19 86 -62
76 -72 -16 -16 -187 101 -187 128 0 13 11 9 44 -15z m-2264 -52 c0 -9 -6 -12
-17 -8 -9 4 -14 2 -10 -3 3 -5 -3 -10 -14 -10 -36 0 -18 17 39 35 1 1 2 -6 2
-14z m1917 -17 c-3 -8 -6 -5 -6 6 -1 11 2 17 5 13 3 -3 4 -12 1 -19z m-1925
-43 c-2 -19 -8 -37 -12 -40 -4 -2 -5 8 -3 23 10 59 21 73 15 17z m-22 -3 c0
-15 -2 -15 -10 -2 -13 20 -13 33 0 25 6 -3 10 -14 10 -23z m1937 6 c-3 -8 -6
-5 -6 6 -1 11 2 17 5 13 3 -3 4 -12 1 -19z m-10 -40 c-3 -8 -6 -5 -6 6 -1 11
2 17 5 13 3 -3 4 -12 1 -19z m103 -124 c-43 -121 -77 -261 -66 -271 4 -4 11
-1 17 7 8 13 10 13 20 0 9 -13 10 -13 6 2 -3 9 3 24 14 34 18 16 19 16 25 -14
4 -18 13 -32 21 -32 10 0 12 -7 8 -22 -12 -42 -43 -93 -54 -91 -6 2 -14 -9
-17 -25 -4 -15 -16 -35 -27 -45 -12 -10 -20 -30 -20 -47 0 -26 -2 -27 -13 -12
-12 16 -13 16 -20 -1 -4 -12 -9 -15 -13 -8 -10 15 12 212 25 235 6 10 9 27 7
36 -3 9 7 55 20 101 14 46 31 109 37 139 7 30 22 80 33 110 17 46 21 51 28 33
5 -14 -5 -55 -31 -129z m-2203 114 c-3 -8 -6 -5 -6 6 -1 11 2 17 5 13 3 -3 4
-12 1 -19z m2427 -18 c32 -14 45 -25 37 -30 -9 -5 -8 -9 4 -14 27 -10 42 -7
25 5 -12 9 -12 10 3 5 10 -3 25 -6 33 -6 9 0 12 -5 8 -12 -5 -8 -2 -9 10 -5
14 6 17 3 12 -10 -4 -9 -1 -20 6 -25 10 -6 6 -13 -14 -28 -18 -14 -24 -26 -21
-41 5 -19 4 -20 -15 -8 -25 15 -40 6 -23 -15 9 -11 7 -15 -11 -20 -13 -3 -25
-1 -26 5 -2 5 -15 23 -29 39 -22 27 -31 30 -80 30 -53 0 -55 1 -48 23 4 12 11
46 17 75 7 38 14 52 24 48 7 -3 16 -1 19 5 4 5 9 8 13 5 4 -2 29 -14 56 -26z
m667 9 c21 -39 77 -108 83 -102 3 4 6 0 6 -8 0 -20 94 -89 137 -101 18 -5 48
-22 66 -37 17 -15 58 -44 89 -64 48 -30 63 -47 86 -97 30 -62 31 -81 3 -56 -9
8 -36 19 -61 25 -25 5 -76 17 -115 26 -38 9 -87 20 -108 24 -21 5 -45 18 -53
29 -24 35 -81 65 -102 53 -20 -11 -36 -4 -45 21 -9 25 57 61 115 62 54 1 61
15 23 40 -36 24 -64 56 -87 103 -12 24 -25 43 -30 43 -4 0 -8 6 -8 14 0 8 -10
22 -22 30 -18 13 -19 16 -6 16 10 0 22 -10 29 -21z m-3073 -64 c0 -16 -2 -15
-8 5 -11 34 -11 60 0 35 5 -11 8 -29 8 -40z m9 -47 c-3 -8 -6 -5 -6 6 -1 11 2
17 5 13 3 -3 4 -12 1 -19z m2216 -6 c-3 -12 -9 -22 -14 -22 -5 0 -3 11 3 25
13 30 20 28 11 -3z m347 -22 c0 -5 -2 -10 -4 -10 -3 0 -8 5 -11 10 -3 6 -1 10
4 10 6 0 11 -4 11 -10z m-2553 -32 c-3 -7 -5 -2 -5 12 0 14 2 19 5 13 2 -7 2
-19 0 -25z m2583 -18 c0 -5 -2 -10 -4 -10 -3 0 -8 5 -11 10 -3 6 -1 10 4 10 6
0 11 -4 11 -10z m158 -24 c-7 -8 -17 -12 -22 -9 -4 3 -2 9 5 14 22 13 31 11
17 -5z m-2631 -268 c-1 -51 -3 -10 -3 92 0 102 2 143 3 93 2 -51 2 -135 0
-185z m2463 262 c0 -5 -7 -7 -15 -4 -8 4 -15 8 -15 10 0 2 7 4 15 4 8 0 15 -4
15 -10z m64 -5 c8 -9 13 -22 9 -30 -4 -11 -1 -13 11 -9 9 3 16 1 16 -5 0 -6
-7 -11 -15 -11 -8 0 -15 -5 -15 -11 0 -5 -5 -7 -10 -4 -6 3 -8 16 -5 28 6 25
-3 41 -25 50 -12 4 -12 6 2 6 9 1 23 -6 32 -14z m-2627 -32 c-3 -10 -5 -4 -5
12 0 17 2 24 5 18 2 -7 2 -21 0 -30z m2486 23 c15 -11 15 -15 3 -19 -8 -3 -17
-1 -19 6 -2 7 -8 9 -12 5 -4 -4 2 -18 12 -32 12 -14 24 -21 29 -16 5 5 17 3
28 -5 16 -13 17 -16 3 -29 -13 -14 -18 -13 -41 5 -14 11 -26 27 -26 35 0 8 -4
14 -8 14 -5 0 -14 11 -20 25 -10 23 -9 25 11 25 12 0 30 -7 40 -14z m177 -76
c0 -5 -4 -10 -10 -10 -5 0 -10 5 -10 10 0 6 5 10 10 10 6 0 10 -4 10 -10z
m-2703 -42 c-3 -8 -6 -5 -6 6 -1 11 2 17 5 13 3 -3 4 -12 1 -19z m2858 -27
c22 -10 56 -22 75 -26 19 -3 44 -9 54 -12 15 -4 18 -1 13 16 -3 15 -1 21 6 18
7 -3 11 -9 10 -15 -1 -5 7 -18 17 -27 11 -10 20 -25 20 -33 0 -8 6 -12 15 -9
8 4 17 2 20 -3 4 -6 1 -10 -6 -10 -7 0 -9 -8 -6 -21 3 -12 -4 -34 -18 -55 -13
-19 -25 -38 -27 -43 -2 -4 -15 -11 -29 -14 -22 -6 -27 -2 -38 30 -7 20 -31 56
-53 79 -36 40 -53 48 -166 84 -70 22 -132 40 -139 40 -28 0 -11 20 26 31 29 9
43 8 61 -1 19 -10 24 -10 31 3 8 13 14 13 51 0 24 -7 61 -22 83 -32z m80 40
c3 -5 1 -12 -5 -16 -5 -3 -10 1 -10 9 0 18 6 21 15 7z m213 -29 c2 -7 -3 -12
-12 -12 -9 0 -16 7 -16 16 0 17 22 14 28 -4z m-168 -2 c0 -5 -8 -10 -17 -10
-15 0 -16 2 -3 10 19 12 20 12 20 0z m-3013 -102 c-3 -7 -5 -2 -5 12 0 14 2
19 5 13 2 -7 2 -19 0 -25z m22 -187 c1 -123 -5 -95 -12 49 -3 79 -2 108 3 80
5 -25 9 -83 9 -129z m2042 108 c-5 -26 -9 -34 -10 -19 -1 27 9 73 15 67 2 -2
0 -23 -5 -48z m-2014 -1 c-3 -7 -5 -2 -5 12 0 14 2 19 5 13 2 -7 2 -19 0 -25z
m110 -120 c-2 -18 -4 -4 -4 32 0 36 2 50 4 33 2 -18 2 -48 0 -65z m1970 30
c-3 -8 -6 -5 -6 6 -1 11 2 17 5 13 3 -3 4 -12 1 -19z m1278 -104 c8 3 15 4 15
2 0 -3 3 -12 7 -22 4 -12 3 -15 -5 -10 -7 4 -12 1 -12 -8 0 -12 -10 -16 -38
-16 -53 0 -155 -67 -190 -126 -15 -24 -30 -44 -34 -44 -19 0 -6 78 20 122 29
50 59 77 131 120 l46 27 23 -25 c13 -15 29 -23 37 -20z m-3265 -101 c-17 -118
-22 -98 -7 28 6 57 14 93 15 80 2 -13 -2 -61 -8 -108z m37 75 c-3 -8 -6 -5 -6
6 -1 11 2 17 5 13 3 -3 4 -12 1 -19z m-170 -20 c-3 -7 -5 -2 -5 12 0 14 2 19
5 13 2 -7 2 -19 0 -25z m998 -4 c-9 -9 -19 -13 -23 -10 -3 4 0 11 8 16 24 15
33 11 15 -6z m-978 -46 c-3 -8 -6 -5 -6 6 -1 11 2 17 5 13 3 -3 4 -12 1 -19z
m-71 -95 c-11 -11 -17 4 -9 23 7 18 8 18 11 1 2 -10 1 -21 -2 -24z m161 -25
c-3 -8 -6 -5 -6 6 -1 11 2 17 5 13 3 -3 4 -12 1 -19z m1032 -40 c6 -17 9 -33
7 -36 -3 -2 -8 7 -12 22 -3 14 -10 26 -15 26 -5 0 -9 5 -9 10 0 22 19 8 29
-22z m-1326 15 c-7 -2 -19 -2 -25 0 -7 3 -2 5 12 5 14 0 19 -2 13 -5z m279
-25 c-8 -8 -9 -4 -5 13 4 13 8 18 11 10 2 -7 -1 -18 -6 -23z m1069 -99 c-5
-13 -10 -19 -10 -12 -1 15 10 45 15 40 3 -2 0 -15 -5 -28z m-644 -101 c-3 -7
-5 -2 -5 12 0 14 2 19 5 13 2 -7 2 -19 0 -25z m20 -70 c-3 -8 -6 -5 -6 6 -1
11 2 17 5 13 3 -3 4 -12 1 -19z m12 -83 c7 -37 6 -52 -5 -62 -12 -12 -13 -10
-8 15 4 17 1 32 -5 36 -6 4 -11 12 -11 17 0 6 5 7 10 4 6 -3 10 -2 10 4 0 5
-5 13 -10 16 -6 4 -8 11 -4 16 9 15 13 7 23 -46z m536 26 c-6 -5 -25 10 -25
20 0 5 6 4 14 -3 8 -7 12 -15 11 -17z m-550 -149 c-8 -8 -13 0 -20 33 l-7 30
16 -29 c9 -16 14 -31 11 -34z m4750 -2 c3 -5 1 -10 -4 -10 -6 0 -11 5 -11 10
0 6 2 10 4 10 3 0 8 -4 11 -10z m-4753 -42 c-8 -8 -9 -4 -5 13 4 13 8 18 11
10 2 -7 -1 -18 -6 -23z m193 22 c-3 -5 -10 -10 -16 -10 -5 0 -9 5 -9 10 0 6 7
10 16 10 8 0 12 -4 9 -10z m-25 -30 c0 -5 -18 -10 -40 -10 -22 0 -40 5 -40 10
0 6 18 10 40 10 22 0 40 -4 40 -10z m-542 -37 c-1 -10 2 -33 7 -52 7 -31 6
-33 -8 -20 -13 13 -22 54 -18 82 2 15 20 6 19 -10z m155 -128 c-3 -9 -8 -14
-10 -11 -3 3 -2 9 2 15 9 16 15 13 8 -4z m362 5 c3 -6 -1 -7 -9 -4 -18 7 -21
14 -7 14 6 0 13 -4 16 -10z m-1004 -135 c-3 -5 -7 -1 -9 10 -2 11 -9 25 -14
32 -5 7 -6 17 -2 24 8 14 33 -51 25 -66z m839 -39 c0 -3 -4 -8 -10 -11 -5 -3
-10 -1 -10 4 0 6 5 11 10 11 6 0 10 -2 10 -4z m-534 -103 c-10 -10 -19 5 -10
18 6 11 8 11 12 0 2 -7 1 -15 -2 -18z m4866 -68 c-3 -5 2 -4 11 3 15 13 47 15
142 9 22 -2 31 -8 37 -27 7 -22 7 -22 5 6 -3 25 0 31 12 26 10 -4 12 -1 6 9
-8 12 -6 12 8 0 9 -7 26 -11 37 -8 11 3 22 1 25 -3 3 -5 18 -5 33 -1 37 11 70
-3 84 -36 l12 -28 4 33 c3 31 5 32 48 30 41 -1 44 -3 44 -30 0 -15 5 -28 10
-28 6 0 10 14 10 31 0 20 4 29 13 26 14 -5 17 -47 4 -64 -12 -16 -78 -13 -84
4 -6 17 -24 17 -20 1 4 -21 -132 -25 -145 -5 -6 9 -8 9 -8 -2 0 -10 -9 -12
-35 -8 -20 3 -33 2 -31 -2 3 -5 -6 -6 -19 -3 -14 2 -25 8 -25 13 0 5 -7 9 -15
9 -8 0 -15 -4 -15 -8 0 -14 -63 -12 -79 1 -11 9 -15 9 -18 0 -3 -7 -17 -13
-31 -14 -24 0 -25 -1 -7 -9 16 -7 17 -9 3 -9 -9 -1 -20 4 -23 9 -4 6 -14 10
-23 9 -47 -4 -61 1 -58 24 1 12 10 34 20 49 15 23 22 26 37 18 15 -9 18 -8 12
7 -5 15 -3 15 10 -2 8 -11 13 -24 9 -30z"/>
<path d="M3851 6094 c0 -11 3 -14 6 -6 3 7 2 16 -1 19 -3 4 -6 -2 -5 -13z"/>
<path d="M3600 5331 c0 -5 7 -38 16 -72 18 -71 13 -123 -17 -187 l-21 -42 21
-133 c11 -72 25 -186 31 -252 6 -65 13 -122 16 -125 3 -3 13 6 23 19 9 13 32
41 51 61 50 54 65 84 89 182 25 102 26 176 6 273 -8 38 -15 85 -15 103 0 27
-10 42 -57 87 -32 30 -64 54 -71 55 -8 0 -27 9 -43 21 -16 11 -29 16 -29 10z"/>
<path d="M3325 5250 c-16 -4 -45 -8 -64 -9 -41 -1 -101 -39 -101 -63 0 -38 63
-49 103 -18 17 14 34 19 49 15 28 -7 54 17 60 54 4 28 -5 32 -47 21z"/>
<path d="M3233 4949 c10 -6 25 -8 33 -5 8 3 14 1 14 -4 0 -6 10 -10 23 -10 20
1 20 2 4 11 -10 6 -35 12 -55 15 -30 3 -34 2 -19 -7z"/>
<path d="M3241 3714 c0 -11 3 -14 6 -6 3 7 2 16 -1 19 -3 4 -6 -2 -5 -13z"/>
<path d="M3232 3655 c0 -16 2 -22 5 -12 2 9 2 23 0 30 -3 6 -5 -1 -5 -18z"/>
<path d="M2200 3345 c0 -5 5 -17 10 -25 5 -8 10 -10 10 -5 0 6 -5 17 -10 25
-5 8 -10 11 -10 5z"/>
<path d="M3320 2570 c0 -5 5 -10 10 -10 6 0 10 5 10 10 0 6 -4 10 -10 10 -5 0
-10 -4 -10 -10z"/>
<path d="M3385 2520 c-3 -5 1 -10 10 -10 9 0 13 5 10 10 -3 6 -8 10 -10 10 -2
0 -7 -4 -10 -10z"/>
<path d="M3385 2370 c-3 -5 -2 -10 4 -10 5 0 13 5 16 10 3 6 2 10 -4 10 -5 0
-13 -4 -16 -10z"/>
<path d="M4151 1784 c0 -11 3 -14 6 -6 3 7 2 16 -1 19 -3 4 -6 -2 -5 -13z"/>
<path d="M4061 1554 c0 -11 3 -14 6 -6 3 7 2 16 -1 19 -3 4 -6 -2 -5 -13z"/>
<path d="M6866 75 c8 -19 14 -19 14 0 0 8 -4 15 -10 15 -5 0 -7 -7 -4 -15z"/>
<path d="M6903 71 c0 -11 5 -17 9 -15 11 7 10 34 -1 34 -6 0 -9 -9 -8 -19z"/>
<path d="M7130 83 c0 -5 5 -15 10 -23 7 -12 9 -10 7 8 -1 19 -17 33 -17 15z"/>
<path d="M1106 7257 c8 -72 48 -200 75 -239 10 -14 19 -33 19 -42 0 -9 4 -16
9 -16 5 0 17 -17 28 -37 59 -118 96 -174 112 -169 9 3 48 7 88 8 71 3 72 3 66
28 -3 14 -23 42 -44 64 -22 21 -39 42 -39 47 0 4 -10 19 -22 33 -40 42 -47 54
-54 83 -4 15 -14 36 -23 45 -50 53 -57 81 -23 86 18 3 26 -4 37 -31 8 -20 28
-45 45 -57 16 -12 30 -27 30 -34 0 -7 10 -21 21 -32 12 -10 35 -39 52 -64 17
-25 35 -48 40 -51 5 -3 8 -9 8 -13 -4 -27 1 -33 24 -28 24 4 25 8 25 69 0 40
-4 62 -10 58 -6 -4 -10 10 -10 34 0 30 -4 41 -15 41 -9 0 -15 9 -15 22 0 12
-7 30 -17 40 -9 11 -11 18 -5 18 7 0 12 16 12 40 0 33 -3 40 -19 40 -11 0 -22
6 -24 13 -4 10 -6 10 -6 0 -1 -7 -12 -13 -26 -13 -22 0 -25 -4 -25 -38 0 -32
-5 -41 -26 -51 -15 -6 -29 -9 -33 -5 -3 4 0 9 7 11 14 6 17 83 2 83 -5 0 -10
-9 -10 -21 0 -20 -7 -21 -56 -2 -7 2 -15 0 -18 -6 -9 -15 -36 -2 -36 18 0 9
-9 31 -20 49 -11 18 -20 39 -20 48 0 8 -5 12 -10 9 -27 -16 -61 -14 -80 5 -20
20 -20 20 -14 -43z"/>
<path d="M1760 7080 c0 -5 18 -10 40 -10 22 0 40 5 40 10 0 6 -18 10 -40 10
-22 0 -40 -4 -40 -10z"/>
<path d="M1735 7070 c-4 -6 -1 -18 7 -27 11 -15 11 -16 -5 -10 -11 4 -16 3
-12 -3 3 -5 19 -7 35 -3 27 5 30 3 30 -22 0 -20 4 -26 15 -21 21 8 42 -33 24
-45 -11 -7 -12 -11 -1 -17 7 -5 10 -17 6 -28 -5 -16 -4 -16 5 -4 6 8 11 11 11
5 0 -5 12 -16 27 -22 31 -15 46 -17 39 -4 -3 4 6 6 20 3 19 -3 22 -7 13 -18
-6 -7 -8 -18 -4 -24 8 -13 42 -13 50 0 3 5 13 7 23 4 9 -2 6 1 -8 8 -14 7 -31
18 -38 25 -6 6 -21 15 -32 18 -11 3 -20 13 -20 21 0 8 -4 14 -10 14 -5 0 -10
9 -10 19 0 10 -7 21 -15 25 -9 3 -15 18 -15 36 0 17 -7 38 -15 46 -12 12 -15
13 -15 2 0 -10 -11 -12 -40 -10 -25 3 -40 9 -40 17 0 18 -17 28 -25 15z m245
-230 c0 -5 -7 -10 -16 -10 -8 0 -12 5 -9 10 3 6 10 10 16 10 5 0 9 -4 9 -10z"/>
<path d="M1808 6953 c7 -3 16 -2 19 1 4 3 -2 6 -13 5 -11 0 -14 -3 -6 -6z"/>
<path d="M3341 6873 c-6 -32 -14 -68 -17 -80 -12 -45 16 -22 47 38 16 34 29
62 27 63 -2 0 -13 9 -24 19 -21 18 -21 17 -33 -40z"/>
<path d="M5284 6887 c-28 -33 -76 -128 -69 -135 7 -7 68 19 103 45 38 29 44
78 12 105 -18 16 -20 15 -46 -15z"/>
<path d="M2035 6860 c3 -5 8 -10 11 -10 2 0 4 5 4 10 0 6 -5 10 -11 10 -5 0
-7 -4 -4 -10z"/>
<path d="M450 6829 c0 -5 5 -7 10 -4 6 3 10 8 10 11 0 2 -4 4 -10 4 -5 0 -10
-5 -10 -11z"/>
<path d="M1870 6826 c0 -9 5 -16 10 -16 6 0 10 4 10 9 0 6 -4 13 -10 16 -5 3
-10 -1 -10 -9z"/>
<path d="M3560 6825 c7 -9 15 -13 17 -11 7 7 -7 26 -19 26 -6 0 -6 -6 2 -15z"/>
<path d="M1676 6822 c-9 -15 14 -82 35 -103 25 -25 33 -24 53 6 20 31 21 41 0
25 -8 -8 -14 -9 -13 -4 3 20 -2 32 -26 58 -25 27 -40 32 -49 18z"/>
<path d="M1910 6820 c0 -5 5 -10 10 -10 6 0 10 5 10 10 0 6 -4 10 -10 10 -5 0
-10 -4 -10 -10z"/>
<path d="M523 6775 c39 -27 45 -40 25 -48 -8 -4 -4 -8 10 -12 12 -4 22 -13 22
-20 0 -7 38 -41 86 -76 47 -35 97 -73 111 -85 l26 -20 66 44 c36 25 87 54 113
65 27 11 48 24 48 29 0 5 5 6 12 2 6 -4 8 -3 5 3 -4 6 -18 8 -32 5 -20 -3 -24
-1 -19 12 7 19 -7 21 -25 4 -11 -11 -12 -9 -6 11 l7 24 -28 -26 c-20 -19 -30
-23 -36 -14 -15 24 -7 46 22 59 34 15 39 33 10 41 -22 6 -31 -3 -51 -50 -12
-29 -19 -33 -51 -33 -27 0 -38 4 -38 15 0 11 -11 15 -40 15 -22 0 -40 5 -40
10 0 6 -19 10 -42 9 -24 0 -37 -3 -30 -6 6 -2 10 -8 7 -12 -2 -5 7 -6 20 -3
26 5 33 -10 16 -37 -7 -10 -17 -9 -52 10 -54 29 -59 36 -59 77 0 27 -4 32 -22
32 -18 0 -20 -2 -8 -10 8 -5 11 -12 7 -16 -4 -4 -15 0 -25 9 -10 10 -25 17
-33 17 -7 0 3 -11 24 -25z m238 -158 c4 -6 15 -7 25 -3 16 6 16 9 4 17 -11 7
-6 8 15 3 35 -8 57 -24 33 -24 -8 0 -29 -3 -45 -6 -21 -4 -36 0 -53 15 -21 18
-22 20 -5 14 11 -3 23 -11 26 -16z m167 -3 c2 -1 -8 -1 -21 0 -15 0 -23 6 -20
14 4 10 9 10 22 0 9 -7 17 -13 19 -14z m-73 -23 c-16 -15 -65 -25 -65 -13 0 6
10 13 23 15 41 8 51 7 42 -2z"/>
<path d="M1558 6793 c7 -3 16 -2 19 1 4 3 -2 6 -13 5 -11 0 -14 -3 -6 -6z"/>
<path d="M323 6755 c4 -9 7 -19 7 -21 0 -2 7 -4 15 -4 22 0 18 18 -7 31 -18
10 -20 9 -15 -6z"/>
<path d="M720 6761 c0 -4 28 -11 61 -15 88 -9 99 -8 99 9 0 12 -16 15 -80 15
-44 0 -80 -4 -80 -9z"/>
<path d="M5243 6736 c-51 -17 -64 -26 -74 -51 -14 -34 -18 -39 -92 -117 -29
-32 -51 -58 -48 -58 3 0 -9 -10 -26 -21 -64 -41 -26 -54 45 -16 93 50 274 242
260 276 -2 4 -31 -2 -65 -13z"/>
<path d="M4560 6729 c0 -6 9 -9 20 -6 10 3 21 0 24 -7 2 -6 5 -3 5 7 1 12 -7
17 -24 17 -14 0 -25 -5 -25 -11z"/>
<path d="M4632 6701 c9 -15 16 -17 30 -10 27 15 22 29 -12 29 -27 0 -29 -2
-18 -19z"/>
<path d="M5096 6705 c-9 -26 -7 -32 5 -12 6 10 9 21 6 23 -2 3 -7 -2 -11 -11z"/>
<path d="M4801 6694 c0 -11 3 -14 6 -6 3 7 2 16 -1 19 -3 4 -6 -2 -5 -13z"/>
<path d="M5060 6685 c-7 -9 -11 -17 -9 -20 3 -2 10 5 17 15 14 24 10 26 -8 5z"/>
<path d="M4915 6642 c-19 -14 -75 -83 -75 -92 0 -6 7 -10 15 -10 8 0 15 7 15
16 0 8 4 13 10 9 5 -3 6 -13 3 -23 -6 -16 -6 -16 11 1 9 9 28 17 42 17 17 0
24 6 24 19 0 11 5 23 10 26 16 10 12 25 -5 18 -9 -3 -21 2 -28 11 -7 8 -17 12
-22 8z m15 -42 c0 -5 -5 -10 -11 -10 -5 0 -7 5 -4 10 3 6 8 10 11 10 2 0 4 -4
4 -10z"/>
<path d="M4498 6633 c12 -2 32 -2 45 0 12 2 2 4 -23 4 -25 0 -35 -2 -22 -4z"/>
<path d="M4585 6630 c4 -6 11 -8 16 -5 14 9 11 15 -7 15 -8 0 -12 -5 -9 -10z"/>
<path d="M4660 6636 c0 -9 37 -12 55 -5 15 6 11 8 -17 8 -21 1 -38 -1 -38 -3z"/>
<path d="M3942 6604 c10 -10 20 -15 24 -12 3 4 -5 12 -18 18 -22 12 -22 12 -6
-6z"/>
<path d="M4665 6610 c-3 -5 -1 -10 4 -10 6 0 11 5 11 10 0 6 -2 10 -4 10 -3 0
-8 -4 -11 -10z"/>
<path d="M6845 6550 c3 -5 8 -10 11 -10 2 0 4 5 4 10 0 6 -5 10 -11 10 -5 0
-7 -4 -4 -10z"/>
<path d="M4007 6539 c7 -7 15 -10 18 -7 3 3 -2 9 -12 12 -14 6 -15 5 -6 -5z"/>
<path d="M4918 6543 c7 -3 16 -2 19 1 4 3 -2 6 -13 5 -11 0 -14 -3 -6 -6z"/>
<path d="M4051 6514 c9 -9 25 -14 35 -12 14 3 10 7 -16 16 -32 12 -34 11 -19
-4z"/>
<path d="M4111 6486 c2 -2 15 -9 29 -15 24 -11 24 -11 6 3 -16 13 -49 24 -35
12z"/>
<path d="M4447 6443 c-13 -12 -7 -23 13 -23 11 0 20 7 20 15 0 15 -21 21 -33
8z"/>
<path d="M1 4059 c-1 -73 3 -93 24 -135 14 -27 25 -42 25 -33 0 9 -3 19 -6 22
-4 4 -8 21 -10 39 -9 100 -14 136 -23 163 -7 24 -9 13 -10 -56z"/>
<path d="M61 4114 c0 -11 3 -14 6 -6 3 7 2 16 -1 19 -3 4 -6 -2 -5 -13z"/>
<path d="M116 3757 c3 -10 9 -15 12 -12 3 3 0 11 -7 18 -10 9 -11 8 -5 -6z"/>
<path d="M4290 3544 c0 -105 7 -247 15 -319 14 -121 63 -382 84 -450 9 -29 9
-29 10 -4 1 14 -3 50 -8 80 -5 30 -14 99 -21 154 -6 55 -18 123 -25 150 -16
61 -33 233 -41 425 -3 80 -7 147 -10 149 -2 2 -4 -81 -4 -185z"/>
<path d="M130 3680 c0 -5 5 -10 11 -10 5 0 7 5 4 10 -3 6 -8 10 -11 10 -2 0
-4 -4 -4 -10z"/>
<path d="M220 2690 c8 -5 20 -10 25 -10 6 0 3 5 -5 10 -8 5 -19 10 -25 10 -5
0 -3 -5 5 -10z"/>
<path d="M568 2353 c7 -3 16 -2 19 1 4 3 -2 6 -13 5 -11 0 -14 -3 -6 -6z"/>
<path d="M618 2293 c7 -3 16 -2 19 1 4 3 -2 6 -13 5 -11 0 -14 -3 -6 -6z"/>
<path d="M3985 2208 c-23 -13 -75 -59 -75 -67 0 -4 20 -5 45 -3 31 3 46 9 49
20 2 10 7 27 11 40 7 24 0 27 -30 10z"/>
<path d="M3738 2001 c-38 -37 -68 -71 -68 -76 0 -4 32 24 72 63 40 39 70 73
68 75 -3 3 -35 -25 -72 -62z"/>
<path d="M3991 1997 c-17 -68 -26 -165 -13 -152 10 11 38 192 31 200 -3 2 -11
-20 -18 -48z"/>
<path d="M3836 1955 c-65 -8 -91 -16 -98 -28 -5 -10 -19 -27 -31 -38 l-22 -21
35 -26 c51 -38 140 -132 140 -147 0 -8 4 -16 9 -19 5 -4 7 4 5 16 -4 22 -4 22
6 -1 6 -13 8 -33 4 -44 -4 -12 -2 -17 4 -13 5 3 13 -1 16 -10 9 -23 8 -26 -6
-18 -10 6 -10 4 0 -8 7 -8 10 -22 6 -31 -3 -8 -1 -18 5 -22 12 -7 13 -5 17 43
1 17 -2 32 -7 32 -5 0 -9 5 -9 11 0 5 4 8 8 5 4 -2 9 9 10 27 5 58 12 41 13
-29 0 -52 3 -63 9 -46 5 12 10 102 11 200 3 204 17 185 -125 167z"/>
<path d="M2858 1653 c7 -3 16 -2 19 1 4 3 -2 6 -13 5 -11 0 -14 -3 -6 -6z"/>
<path d="M2840 1573 c0 -4 5 -15 10 -23 8 -13 10 -13 10 2 0 9 -4 20 -10 23
-5 3 -10 3 -10 -2z"/>
<path d="M2820 1555 c0 -5 5 -17 10 -25 5 -8 10 -10 10 -5 0 6 -5 17 -10 25
-5 8 -10 11 -10 5z"/>
<path d="M3925 1530 c-3 -5 -1 -10 4 -10 6 0 11 5 11 10 0 6 -2 10 -4 10 -3 0
-8 -4 -11 -10z"/>
<path d="M2760 1476 c0 -8 4 -17 9 -20 5 -4 7 3 4 14 -6 23 -13 26 -13 6z"/>
<path d="M2845 1459 c-4 -6 -5 -12 -2 -15 2 -3 7 2 10 11 7 17 1 20 -8 4z"/>
<path d="M2805 1450 c-3 -5 -1 -10 4 -10 6 0 11 5 11 10 0 6 -2 10 -4 10 -3 0
-8 -4 -11 -10z"/>
<path d="M762 1423 c-17 -7 -5 -23 19 -23 10 0 19 7 19 15 0 15 -14 18 -38 8z"/>
<path d="M670 1390 c0 -5 7 -10 15 -10 8 0 15 5 15 10 0 6 -7 10 -15 10 -8 0
-15 -4 -15 -10z"/>
<path d="M2848 1353 c7 -3 16 -2 19 1 4 3 -2 6 -13 5 -11 0 -14 -3 -6 -6z"/>
<path d="M2231 1304 c0 -11 3 -14 6 -6 3 7 2 16 -1 19 -3 4 -6 -2 -5 -13z"/>
<path d="M2935 1301 c-3 -6 -1 -11 5 -11 6 0 9 -4 5 -9 -3 -5 -1 -12 4 -15 16
-10 20 8 6 27 -8 12 -15 14 -20 8z"/>
<path d="M2250 1270 c-8 -5 -12 -12 -9 -15 4 -3 12 1 19 10 14 17 11 19 -10 5z"/>
<path d="M2246 1201 c-4 -5 -2 -12 3 -15 5 -4 12 -2 15 3 4 5 2 12 -3 15 -5 4
-12 2 -15 -3z"/>
<path d="M523 1193 c4 -3 2 -12 -5 -20 -9 -12 -4 -33 6 -22 12 14 16 49 5 49
-7 0 -9 -3 -6 -7z"/>
<path d="M6884 1136 c11 -9 24 -16 30 -16 12 0 7 5 -24 19 -24 11 -24 11 -6
-3z"/>
<path d="M2876 1083 c-6 -14 -5 -15 5 -6 7 7 10 15 7 18 -3 3 -9 -2 -12 -12z"/>
<path d="M6548 1038 c29 -28 54 -49 57 -47 6 7 -85 99 -99 99 -6 0 13 -23 42
-52z"/>
<path d="M2887 1063 c-4 -3 -7 -13 -7 -22 1 -13 3 -13 11 2 11 19 8 33 -4 20z"/>
<path d="M2470 1046 c0 -2 7 -7 16 -10 8 -3 12 -2 9 4 -6 10 -25 14 -25 6z"/>
<path d="M7037 1019 c7 -7 15 -10 18 -7 3 3 -2 9 -12 12 -14 6 -15 5 -6 -5z"/>
<path d="M2436 1003 c-6 -14 -5 -15 5 -6 7 7 10 15 7 18 -3 3 -9 -2 -12 -12z"/>
<path d="M2932 990 c0 -14 2 -19 5 -12 2 6 2 18 0 25 -3 6 -5 1 -5 -13z"/>
<path d="M5700 1007 c-13 -13 9 -256 29 -319 12 -37 25 -99 30 -138 11 -88 -8
-153 -60 -202 -19 -18 -40 -45 -47 -60 -8 -20 -19 -28 -37 -28 -14 0 -25 -4
-25 -10 0 -5 14 -10 30 -10 28 0 30 -2 30 -40 0 -36 -3 -40 -24 -40 -13 0 -26
6 -29 13 -2 7 -8 8 -13 3 -5 -5 -4 -11 4 -13 7 -3 12 -22 12 -44 0 -39 0 -39
40 -39 29 0 40 4 40 15 0 8 4 15 9 15 11 0 21 -36 21 -78 l0 -32 306 0 306 1
-4 40 c-2 21 0 39 4 39 5 0 8 19 8 43 0 31 -3 38 -10 27 -6 -10 -10 -11 -10
-2 0 6 -9 12 -19 12 -14 0 -24 14 -37 50 -10 27 -25 52 -33 56 -18 6 -81 88
-81 105 0 5 -5 7 -12 3 -7 -5 -9 -2 -5 9 3 9 2 17 -2 19 -4 2 -24 35 -44 73
-21 39 -58 97 -83 130 -51 67 -84 126 -84 150 0 9 -4 14 -9 10 -5 -3 -34 32
-64 77 -57 87 -129 173 -137 165z m610 -968 c0 -6 -4 -7 -10 -4 -5 3 -10 11
-10 16 0 6 5 7 10 4 6 -3 10 -11 10 -16z"/>
<path d="M1820 981 c0 -6 4 -13 10 -16 6 -3 7 1 4 9 -7 18 -14 21 -14 7z"/>
<path d="M6635 970 c-3 -5 -1 -10 4 -10 6 0 11 5 11 10 0 6 -2 10 -4 10 -3 0
-8 -4 -11 -10z"/>
<path d="M2721 944 c0 -11 3 -14 6 -6 3 7 2 16 -1 19 -3 4 -6 -2 -5 -13z"/>
<path d="M2568 873 c7 -3 16 -2 19 1 4 3 -2 6 -13 5 -11 0 -14 -3 -6 -6z"/>
<path d="M2640 872 c0 -7 -7 -12 -16 -12 -17 0 -15 -21 3 -27 10 -4 26 37 18
46 -3 2 -5 -1 -5 -7z"/>
<path d="M2803 860 c-1 -11 2 -22 6 -24 4 -3 7 4 6 14 -2 27 -10 33 -12 10z"/>
<path d="M2830 876 c0 -2 8 -10 18 -17 15 -13 16 -12 3 4 -13 16 -21 21 -21
13z"/>
<path d="M4895 869 c-11 -4 -37 -8 -57 -8 -34 -1 -39 -5 -69 -58 -18 -32 -56
-89 -85 -127 -29 -38 -60 -84 -71 -103 -17 -33 -17 -35 0 -44 10 -6 22 -22 28
-35 5 -14 13 -22 19 -19 15 9 13 4 -19 -66 -16 -35 -32 -80 -35 -99 -6 -34 -5
-33 18 13 13 26 27 47 32 47 4 -1 33 54 64 122 49 107 100 200 180 327 25 41
23 62 -5 50z"/>
<path d="M2972 848 c-7 -7 -12 -16 -12 -21 0 -5 7 -1 16 8 9 9 14 18 12 20 -2
3 -10 -1 -16 -7z"/>
<path d="M2683 834 c-23 -10 -14 -34 12 -34 24 0 31 -15 26 -57 -1 -6 3 -14 9
-18 6 -4 7 1 3 11 -5 13 -3 15 8 9 11 -6 12 -5 2 6 -22 22 -14 33 9 13 l22
-19 -18 30 -19 30 23 -20 c13 -11 20 -15 17 -9 -9 16 19 38 35 28 10 -6 10 -4
-1 9 -7 9 -23 16 -35 16 -11 -1 -34 1 -51 4 -16 4 -36 4 -42 1z"/>
<path d="M2850 749 c-22 -18 -22 -19 -3 -10 12 6 25 16 28 21 9 15 3 12 -25
-11z"/>
<path d="M4917 692 c-9 -42 -19 -119 -23 -170 -7 -98 -12 -106 -25 -45 -5 21
-5 -20 -2 -92 4 -71 7 -187 6 -257 l-1 -128 214 0 214 0 -24 38 c-33 49 -136
252 -136 267 0 7 -17 32 -38 56 -56 66 -77 111 -117 254 -21 72 -40 136 -44
142 -4 7 -14 -22 -24 -65z"/>
<path d="M2141 734 c0 -11 3 -14 6 -6 3 7 2 16 -1 19 -3 4 -6 -2 -5 -13z"/>
<path d="M1865 289 c-4 -6 -5 -13 -2 -16 7 -7 27 6 27 18 0 12 -17 12 -25 -2z"/>
<path d="M4570 260 c0 -11 2 -20 4 -20 2 0 6 9 9 20 3 11 1 20 -4 20 -5 0 -9
-9 -9 -20z"/>
<path d="M6390 255 c7 -8 17 -15 22 -15 6 0 5 7 -2 15 -7 8 -17 15 -22 15 -6
0 -5 -7 2 -15z"/>
<path d="M1831 243 c-9 -10 -10 -18 -2 -26 7 -7 12 -6 17 6 9 25 1 37 -15 20z"/>
<path d="M1790 170 c0 -5 5 -10 10 -10 6 0 10 5 10 10 0 6 -4 10 -10 10 -5 0
-10 -4 -10 -10z"/>
<path d="M4574 155 c-3 -8 -4 -20 -2 -27 3 -7 7 -1 10 15 6 29 1 36 -8 12z"/>
<path d="M6340 140 c0 -11 5 -20 10 -20 6 0 10 9 10 20 0 11 -4 20 -10 20 -5
0 -10 -9 -10 -20z"/>
<path d="M6686 145 c7 -17 20 -20 28 -6 3 5 -1 12 -10 15 -22 9 -24 8 -18 -9z"/>
<path d="M4621 78 c-1 -46 3 -78 9 -78 6 0 10 11 10 25 0 14 5 25 10 25 6 0
10 8 9 18 0 10 -3 12 -6 5 -8 -22 -25 -14 -20 10 2 12 1 33 -3 47 -6 17 -8 0
-9 -52z"/>
<path d="M6671 114 c0 -11 3 -14 6 -6 3 7 2 16 -1 19 -3 4 -6 -2 -5 -13z"/>
<path d="M1776 101 c-4 -7 -5 -15 -2 -18 9 -9 19 4 14 18 -4 11 -6 11 -12 0z"/>
<path d="M4534 50 c-5 -25 -6 -47 -1 -49 15 -6 18 6 15 50 l-3 44 -11 -45z"/>
<path d="M1680 58 c0 -19 2 -20 10 -8 13 19 13 30 0 30 -5 0 -10 -10 -10 -22z"/>
<path d="M6340 40 c0 -34 3 -40 21 -40 19 0 21 4 15 31 -3 17 -6 35 -6 40 0 5
-7 9 -15 9 -11 0 -15 -11 -15 -40z"/>
<path d="M1766 42 c-6 -10 22 -47 30 -40 3 4 3 16 -1 27 -6 21 -20 27 -29 13z"/>
<path d="M1707 24 c-13 -13 -7 -24 14 -24 11 0 19 5 17 12 -5 14 -22 21 -31
12z"/>
<path d="M6620 10 c0 -5 7 -10 15 -10 8 0 15 5 15 10 0 6 -7 10 -15 10 -8 0
-15 -4 -15 -10z"/>
</g>
</svg>
